<?xml version="1.0" encoding="UTF-8" standalone="no"?>
<svg
   xmlns:dc="http://purl.org/dc/elements/1.1/"
   xmlns:cc="http://creativecommons.org/ns#"
   xmlns:rdf="http://www.w3.org/1999/02/22-rdf-syntax-ns#"
   xmlns:svg="http://www.w3.org/2000/svg"
   xmlns="http://www.w3.org/2000/svg"
   viewBox="0 0 494.96667 275.03333"
   height="275.03333"
   width="494.96667"
   xml:space="preserve"
   id="svg2"
   version="1.1"><metadata
     id="metadata8"><rdf:RDF><cc:Work
         rdf:about=""><dc:format>image/svg+xml</dc:format><dc:type
           rdf:resource="http://purl.org/dc/dcmitype/StillImage" /></cc:Work></rdf:RDF></metadata><defs
     id="defs6" /><g
     transform="matrix(1.3333333,0,0,-1.3333333,0,275.03333)"
     id="g10"><g
       id="g12"><path
         id="path14"
         style="fill:#054779;fill-opacity:1;fill-rule:nonzero;stroke:none"
         d="m 172.195,81.38 c -1.867,0.2 -3.605,0.598 -3.605,0.829 0,0.109 -0.09,0.144 -0.203,0.074 -0.11,-0.067 -0.199,-0.039 -0.199,0.066 0,0.106 -0.211,0.242 -0.469,0.309 -0.254,0.066 -0.817,0.398 -1.25,0.738 -1.59,1.266 -1.516,3.5 0.168,4.859 0.676,0.547 0.926,0.618 2.437,0.7 l 1.688,0.086 -0.324,0.683 c -0.321,0.668 -0.254,1.352 0.23,2.481 0.098,0.218 -0.348,0.66 -1.617,1.601 -0.965,0.711 -1.832,1.27 -1.926,1.242 -0.09,-0.031 -0.121,0.024 -0.062,0.118 0.058,0.093 -0.387,0.601 -0.989,1.121 l -1.097,0.949 -0.289,-0.668 c -0.43,-0.981 -1.504,-2.102 -2.352,-2.457 -0.41,-0.172 -1.266,-0.309 -1.902,-0.309 -0.977,0.004 -1.387,0.129 -2.629,0.817 -0.809,0.449 -1.914,1.246 -2.453,1.765 -0.543,0.524 -1.032,0.922 -1.086,0.887 -0.055,-0.035 -0.051,-0.004 0.007,0.07 0.157,0.211 -1.14,1.469 -1.371,1.329 -0.109,-0.071 -0.14,-0.028 -0.066,0.089 0.074,0.118 -0.082,0.469 -0.344,0.782 -0.258,0.312 -1.015,1.398 -1.679,2.41 -0.665,1.011 -1.278,1.777 -1.364,1.703 -0.082,-0.078 -0.101,-0.047 -0.035,0.066 0.129,0.227 -1.523,2.965 -1.687,2.801 -0.055,-0.059 -0.102,0.012 -0.106,0.149 0,0.136 -0.465,1.054 -1.031,2.039 -0.567,0.984 -1.18,2.179 -1.36,2.656 -0.183,0.472 -0.394,0.863 -0.468,0.863 -0.078,0 -0.141,0.109 -0.141,0.25 0,0.137 -0.348,1.106 -0.766,2.149 -3.132,7.812 -4.035,20.105 -2.195,29.945 0.637,3.422 2.012,7.433 3.606,10.539 1.824,3.555 5.211,6.918 8.054,8 1.266,0.48 3.91,0.598 4.895,0.215 0.523,-0.203 0.535,-0.192 0.351,0.297 -0.332,0.875 -0.214,2.218 0.297,3.379 0.867,1.96 2.844,3.738 6.785,6.097 1.754,1.055 1.762,1.059 1.399,1.488 -0.199,0.235 -0.41,0.473 -0.473,0.532 -0.058,0.054 -0.133,0.461 -0.16,0.906 -0.09,1.395 0.649,2.605 1.703,2.789 0.348,0.059 1.52,0.356 2.602,0.656 1.898,0.532 2.164,0.551 6.683,0.551 2.586,0.004 5.653,-0.043 6.809,-0.098 1.184,-0.054 3.078,0.016 4.332,0.164 3.398,0.403 9.543,0.375 12.09,-0.05 1.16,-0.196 2.41,-0.481 2.781,-0.633 0.371,-0.156 0.836,-0.281 1.031,-0.281 0.196,0 0.633,-0.321 0.977,-0.707 0.496,-0.571 0.621,-0.887 0.621,-1.614 0,-1.015 -0.391,-1.914 -1.023,-2.359 -0.411,-0.289 -0.383,-0.32 0.847,-0.941 2.133,-1.075 4.196,-2.559 5.918,-4.25 1.465,-1.438 1.684,-1.75 2.078,-2.981 0.418,-1.289 0.426,-1.453 0.16,-2.543 l -0.285,-1.168 1.11,0.52 c 0.957,0.449 1.371,0.519 3.011,0.511 2.352,-0.007 3.696,-0.484 5.348,-1.894 0.629,-0.535 1.238,-0.922 1.352,-0.856 0.117,0.067 0.14,0.043 0.054,-0.05 -0.086,-0.094 0.375,-0.719 1.024,-1.387 1.133,-1.164 3.039,-3.984 3.039,-4.496 0,-0.133 0.101,-0.18 0.23,-0.102 0.141,0.086 0.176,0.055 0.094,-0.082 -0.078,-0.121 0.031,-0.562 0.242,-0.98 0.621,-1.235 2.004,-5.446 2.453,-7.481 2.926,-13.218 0.957,-28.449 -4.984,-38.539 -0.516,-0.879 -1.031,-1.75 -1.141,-1.937 -2.347,-3.973 -4.554,-6.989 -6.922,-9.465 -2.32,-2.426 -3.582,-3.121 -5.664,-3.121 -1.859,0 -2.968,0.519 -3.761,1.769 -0.317,0.5 -0.578,1.106 -0.578,1.34 0,0.235 -0.059,0.488 -0.129,0.559 -0.203,0.203 -0.684,-0.282 -0.536,-0.539 0.071,-0.125 0.059,-0.164 -0.027,-0.086 -0.09,0.082 -0.801,-0.375 -1.586,-1.016 -0.785,-0.637 -1.933,-1.527 -2.554,-1.98 l -1.125,-0.825 0.214,-0.816 c 0.153,-0.566 0.157,-1.043 0.012,-1.586 l -0.207,-0.773 1.445,-0.11 c 1.614,-0.125 2.313,-0.418 3.188,-1.336 0.558,-0.59 0.594,-0.718 0.57,-2.152 -0.019,-1.402 -0.066,-1.563 -0.594,-2.051 -0.812,-0.75 -2.398,-1.594 -3.464,-1.844 -0.954,-0.222 -5.86,-0.261 -7.422,-0.062 -0.496,0.066 -1.602,0.254 -2.453,0.418 -0.852,0.164 -1.641,0.242 -1.754,0.172 -0.11,-0.067 -0.2,-0.043 -0.2,0.058 0,0.098 -0.507,0.293 -1.125,0.43 -0.617,0.137 -1.742,0.465 -2.503,0.723 l -1.383,0.468 -1.149,-0.39 c -0.633,-0.215 -1.285,-0.449 -1.453,-0.52 -0.164,-0.07 -0.433,-0.156 -0.597,-0.191 -0.168,-0.031 -1.383,-0.297 -2.708,-0.582 -1.32,-0.289 -3.437,-0.609 -4.703,-0.711 -1.265,-0.106 -2.437,-0.219 -2.605,-0.258 -0.164,-0.035 -0.887,-0.004 -1.602,0.07 z m 6.809,1.321 c 0.937,0.164 1.836,0.351 2.004,0.418 0.164,0.066 0.601,0.156 0.972,0.199 2.09,0.254 10.903,3.746 10.493,4.16 -0.078,0.074 -0.004,0.082 0.156,0.024 0.445,-0.172 5.551,2.777 8.656,5 1.516,1.085 2.754,2.046 2.754,2.136 0,0.09 -0.203,0.164 -0.449,0.164 -1.141,0 -2.41,1.356 -2.66,2.836 -0.071,0.422 -0.18,0.77 -0.242,0.77 -0.063,0 -0.981,-0.555 -2.036,-1.235 -2.722,-1.746 -8.011,-4.339 -11.535,-5.652 -5.652,-2.105 -11.969,-3.328 -17.195,-3.328 -1.024,0 -1.809,-0.113 -2.246,-0.32 -0.797,-0.379 -0.988,-0.586 -1.371,-1.508 -0.266,-0.633 -0.258,-0.778 0.086,-1.543 0.328,-0.731 0.558,-0.926 1.707,-1.442 0.73,-0.328 1.402,-0.55 1.496,-0.496 0.09,0.059 0.195,0.004 0.234,-0.117 0.199,-0.59 5.918,-0.633 9.176,-0.066 z m 23.625,-0.121 c 0.707,0.101 1.816,0.382 2.457,0.621 1.465,0.547 2.012,1.25 2.039,2.609 0.016,0.832 -0.07,1.063 -0.602,1.59 -0.738,0.742 -1.652,0.98 -3.75,0.988 -0.863,0 -2.425,0.106 -3.468,0.227 l -1.899,0.226 -3.343,-1.699 c -1.836,-0.933 -3.868,-1.902 -4.504,-2.152 -0.641,-0.254 -1.094,-0.531 -1.004,-0.613 0.265,-0.258 3.804,-1.157 6.172,-1.575 2.402,-0.422 5.855,-0.519 7.902,-0.222 z M 176,89.521 c 0.273,0.074 0.605,0.121 0.73,0.102 0.883,-0.141 10.684,2.566 10.684,2.953 0,0.074 0.176,0.152 0.387,0.168 1.476,0.109 11.687,5.515 11.277,5.968 -0.082,0.086 -0.051,0.106 0.067,0.04 0.117,-0.067 0.476,0.05 0.8,0.261 l 0.586,0.387 -0.656,0.129 c -0.754,0.152 -1.805,1.281 -1.98,2.137 -0.161,0.761 -0.368,0.832 -0.801,0.281 -0.207,-0.262 -0.578,-0.582 -0.832,-0.719 -0.395,-0.211 -0.422,-0.293 -0.196,-0.582 0.227,-0.293 0.223,-0.305 -0.05,-0.094 -0.258,0.2 -0.438,0.145 -1,-0.316 -0.864,-0.707 -4.672,-2.824 -6.399,-3.559 -0.715,-0.304 -1.347,-0.605 -1.402,-0.664 -0.211,-0.234 -4.617,-1.629 -6.91,-2.191 -1.321,-0.324 -3.633,-0.738 -5.141,-0.926 -2.402,-0.301 -2.812,-0.406 -3.355,-0.871 -0.868,-0.738 -0.993,-1.59 -0.352,-2.355 l 0.504,-0.594 1.769,0.152 c 0.973,0.082 1.993,0.215 2.27,0.293 z m 25.965,0.352 c 0.223,0.461 0.281,0.91 0.191,1.394 l -0.133,0.715 -1.546,-1.105 c -0.848,-0.61 -1.575,-1.188 -1.606,-1.286 -0.035,-0.093 0.371,-0.207 0.899,-0.25 0.531,-0.043 1.168,-0.093 1.418,-0.113 0.335,-0.023 0.539,0.141 0.777,0.645 z m -28.57,3.589 c 0.718,0.11 1.332,0.223 1.367,0.25 0.035,0.028 -0.043,0.399 -0.172,0.829 -0.219,0.742 -0.082,1.355 0.555,2.48 0.035,0.066 -0.571,0.539 -1.344,1.055 l -1.406,0.933 V 98.15 c 0,-0.914 -0.598,-2.316 -1.106,-2.602 -0.168,-0.093 -0.25,-0.257 -0.187,-0.363 0.066,-0.105 0.046,-0.176 -0.043,-0.152 -0.094,0.023 -0.555,-0.028 -1.028,-0.113 l -0.859,-0.157 1.16,-0.879 c 0.711,-0.535 1.277,-0.828 1.461,-0.75 0.164,0.071 0.887,0.219 1.602,0.328 z m 7.109,1.243 c 2.922,0.761 3.734,1.039 6.512,2.215 2.816,1.191 5.629,2.695 5.484,2.929 -0.055,0.086 0.031,0.106 0.188,0.047 0.261,-0.101 3.16,1.918 3.718,2.59 0.199,0.242 0.121,0.328 -0.472,0.523 -0.735,0.246 -1.707,1.305 -1.707,1.864 0,0.523 -0.313,0.558 -0.813,0.086 -2.351,-2.219 -6.84,-4.598 -13.309,-7.055 -2.203,-0.836 -4.121,-1.559 -4.257,-1.606 -0.735,-0.246 -0.664,-1.644 0.105,-2.211 0.375,-0.277 1.938,-0.066 4.551,0.618 z m 34.504,-0.274 c 1.613,0.735 4.898,4.266 7.18,7.719 1.07,1.621 1.949,3.066 1.949,3.207 0,0.145 0.066,0.262 0.152,0.262 0.184,0 2.481,3.789 3.359,5.543 2.625,5.246 4.778,15.754 4.59,22.425 l -0.058,2.02 -0.942,-0.848 c -1.445,-1.297 -3.031,-1.398 -4.687,-0.297 l -0.824,0.547 -0.114,-2.328 c -0.097,-1.922 -0.422,-4.867 -0.843,-7.636 -0.211,-1.364 -2.586,-8.672 -3.52,-10.825 -1.055,-2.433 -4.324,-7.265 -6.449,-9.539 -0.363,-0.386 -0.531,-0.726 -0.438,-0.879 0.094,-0.152 0.071,-0.199 -0.054,-0.121 -0.118,0.071 -0.45,-0.183 -0.743,-0.57 -0.293,-0.383 -0.468,-0.699 -0.386,-0.699 0.082,0 0.008,-0.114 -0.168,-0.25 -0.614,-0.485 -3.403,-3.828 -3.578,-4.289 -0.399,-1.051 0.339,-2.676 1.558,-3.411 1.016,-0.617 2.703,-0.628 4.016,-0.031 z m -52.84,0.52 c 0.773,0.394 2.016,2.074 2.016,2.726 0,0.235 -0.274,0.7 -0.602,1.032 -1.008,1.003 -3.461,3.984 -4.227,5.128 -0.394,0.594 -1.234,1.868 -1.867,2.833 -0.629,0.968 -1.215,1.714 -1.297,1.664 -0.086,-0.055 -0.152,0.015 -0.152,0.148 0,0.137 -0.32,0.695 -0.711,1.242 -2.32,3.27 -5.055,9.625 -6.16,14.321 -0.441,1.882 -1.008,7.25 -1.008,9.558 v 1.488 l -0.808,-0.691 c -1.688,-1.445 -4.055,-1.059 -5.332,0.867 -0.29,0.442 -0.547,0.778 -0.571,0.746 -0.14,-0.172 0.324,-8.644 0.582,-10.566 0.324,-2.442 1.258,-6.649 1.957,-8.813 0.946,-2.929 3.922,-8.984 4.649,-9.461 0.125,-0.086 0.136,-0.152 0.023,-0.156 -0.109,-0.008 -0.019,-0.148 0.199,-0.312 0.223,-0.168 0.391,-0.368 0.375,-0.446 -0.05,-0.316 0.184,-0.632 0.379,-0.511 0.117,0.074 0.153,0.039 0.086,-0.071 -0.164,-0.265 2.16,-3.898 2.371,-3.711 0.086,0.082 0.098,0.043 0.028,-0.086 -0.075,-0.125 0.273,-0.757 0.765,-1.402 2.797,-3.641 5.68,-5.863 7.614,-5.871 0.566,-0.004 1.3,0.148 1.691,0.344 z m 44.125,1.394 c 0.52,0.383 1.625,1.426 2.457,2.328 l 1.508,1.637 -0.981,0.16 c -1.597,0.262 -2.836,1.801 -2.836,3.524 0,0.648 -0.07,0.824 -0.347,0.824 -0.781,0 -1.953,0.469 -2.469,0.98 -0.297,0.301 -0.703,1.051 -0.898,1.672 -0.329,1.043 -0.395,1.121 -0.875,1.024 -0.289,-0.059 -1.028,0.086 -1.661,0.324 -0.851,0.316 -1.25,0.602 -1.574,1.129 -0.918,1.488 -0.879,3.066 0.113,4.246 0.27,0.32 0.473,0.621 0.446,0.664 -0.024,0.047 0.129,-0.07 0.336,-0.258 0.375,-0.332 0.371,-0.355 -0.149,-0.972 -0.996,-1.184 -0.59,-3.247 0.766,-3.887 1.176,-0.555 1.566,-0.559 2.57,-0.028 1.09,0.583 1.285,0.629 0.961,0.239 -0.344,-0.418 -0.328,-1.938 0.028,-2.766 0.175,-0.406 0.546,-0.887 0.828,-1.07 0.699,-0.457 2.043,-0.617 2.433,-0.293 0.492,0.406 0.832,-0.051 0.531,-0.711 -1.011,-2.215 1.52,-4.781 3.54,-3.586 0.71,0.422 2.878,3.324 4.492,6.016 0.09,0.152 -0.168,0.191 -0.852,0.125 -1.293,-0.125 -1.859,0.035 -2.676,0.754 -0.371,0.328 -0.742,0.527 -0.824,0.449 -0.078,-0.082 -0.125,-0.059 -0.101,0.054 0.148,0.747 -0.016,0.899 -0.965,0.899 -1.461,0 -2.621,0.711 -3.313,2.031 -0.468,0.895 -0.691,1.113 -1.347,1.313 -1.938,0.582 -2.86,1.707 -2.883,3.519 -0.012,0.945 -0.067,1.129 -0.313,1.024 -0.687,-0.297 -2.547,-0.321 -2.812,-0.036 -0.227,0.243 -0.477,0.063 -1.684,-1.207 -1.429,-1.507 -6.148,-4.89 -7.187,-5.148 -1.492,-0.375 -1.305,-3.981 0.25,-4.707 1.652,-0.777 2.84,-0.582 3.812,0.629 0.598,0.742 0.688,0.789 0.973,0.504 0.285,-0.289 0.277,-0.356 -0.11,-0.77 -0.933,-1.004 -0.667,-2.429 0.575,-3.074 0.769,-0.398 1.406,-0.254 2.414,0.547 0.836,0.66 0.914,0.531 0.457,-0.735 -0.438,-1.21 -0.367,-1.914 0.258,-2.632 0.629,-0.723 1.964,-1.192 2.39,-0.84 0.192,0.16 0.34,0.152 0.547,-0.016 0.242,-0.203 0.227,-0.363 -0.109,-1.125 -0.324,-0.734 -0.356,-1.023 -0.188,-1.656 0.254,-0.938 0.969,-1.641 1.852,-1.824 0.976,-0.203 1.554,-0.043 2.617,0.73 z m -35.887,-0.402 c 1.239,0.734 1.606,2.934 0.676,4.039 -0.328,0.391 -0.621,0.566 -0.828,0.484 -0.211,-0.078 -0.164,0.055 0.148,0.414 0.457,0.524 0.469,0.528 0.875,0.157 0.707,-0.641 1.93,-1.133 1.637,-0.657 -0.059,0.094 0.098,0.133 0.352,0.082 0.343,-0.062 0.589,0.09 0.996,0.618 0.609,0.8 0.691,1.726 0.234,2.605 -0.164,0.317 -0.301,0.809 -0.301,1.09 v 0.516 l 0.551,-0.512 c 1.246,-1.164 2.211,-1.27 3.074,-0.344 0.727,0.777 0.809,2.02 0.176,2.692 -0.375,0.398 -0.383,0.453 -0.078,0.707 0.289,0.238 0.418,0.171 1.059,-0.563 0.554,-0.637 0.992,-0.906 1.847,-1.148 0.617,-0.172 1.25,-0.274 1.403,-0.219 0.156,0.051 0.668,0.191 1.14,0.312 0.539,0.141 0.805,0.301 0.719,0.442 -0.078,0.129 -0.047,0.168 0.078,0.09 0.316,-0.196 1.074,0.972 1.188,1.832 0.058,0.457 -0.047,1.113 -0.274,1.707 l -0.367,0.961 -3.047,1.457 c -3.758,1.793 -5.516,2.925 -6.57,4.234 l -0.813,1.004 -0.976,-0.273 c -0.86,-0.247 -1.059,-0.239 -1.653,0.042 -0.371,0.176 -0.695,0.325 -0.722,0.325 -0.032,0 -0.051,-0.481 -0.051,-1.067 0,-1.879 -1.629,-3.742 -3.27,-3.742 -0.55,0 -0.621,-0.066 -0.621,-0.57 0,-0.598 -1.004,-2.172 -1.511,-2.363 -0.161,-0.063 -0.254,-0.176 -0.207,-0.25 0.105,-0.168 -0.446,-0.239 -1.938,-0.247 -0.734,-0.003 -1.152,-0.089 -1.152,-0.238 0,-0.125 -0.36,-0.558 -0.801,-0.961 -0.785,-0.719 -2.297,-1.191 -2.805,-0.879 -0.863,0.535 0.274,-1.906 1.785,-3.828 0.2,-0.254 0.438,-0.398 0.524,-0.32 0.086,0.078 0.097,0.039 0.027,-0.09 -0.207,-0.355 0.77,-1.387 1.766,-1.867 l 0.887,-0.43 0.894,0.395 c 0.492,0.215 1.047,0.629 1.234,0.914 0.461,0.703 0.477,2.386 0.032,2.883 -0.325,0.355 -0.321,0.394 0.031,0.714 0.332,0.301 0.402,0.305 0.629,0.032 0.359,-0.434 1.543,-0.379 2.336,0.113 0.906,0.562 1.32,1.406 1.238,2.535 -0.051,0.699 0.016,0.957 0.289,1.129 0.274,0.172 0.399,0.16 0.524,-0.043 0.277,-0.445 1.64,-0.496 2.425,-0.094 1.407,0.723 1.852,3.047 0.801,4.168 -0.383,0.406 -0.418,0.539 -0.199,0.797 0.23,0.281 0.297,0.277 0.656,-0.043 1.203,-1.07 1.25,-3.723 0.086,-5.008 -0.59,-0.652 -1.992,-1.129 -2.945,-1 -0.789,0.106 -0.801,0.094 -0.805,-0.527 -0.004,-0.773 -0.715,-2.059 -1.434,-2.594 -0.296,-0.219 -0.972,-0.437 -1.503,-0.488 l -0.965,-0.094 -0.035,-1.207 c -0.047,-1.586 -0.727,-2.484 -2.289,-3.039 -0.594,-0.215 -1.122,-0.418 -1.172,-0.457 -0.145,-0.121 3.855,-4.055 4.019,-3.953 0.082,0.051 0.211,-0.004 0.285,-0.125 0.379,-0.613 1.864,-0.75 2.711,-0.25 z m 8.047,2.195 c 1.074,0.407 1.953,0.789 1.953,0.856 0,0.066 -0.472,0.402 -1.054,0.75 -0.579,0.347 -1.649,1.176 -2.379,1.843 l -1.325,1.215 -0.101,-0.781 c -0.137,-1.004 -1.043,-2.199 -1.781,-2.348 -0.309,-0.062 -0.512,-0.199 -0.446,-0.304 0.063,-0.102 0.243,-0.141 0.395,-0.082 0.152,0.058 0.254,0.023 0.23,-0.082 -0.043,-0.16 2.18,-1.793 2.453,-1.801 0.055,-0.004 0.981,0.328 2.055,0.734 z m 5.285,2.094 c 1.032,0.453 1.875,0.91 1.875,1.023 0,0.11 -0.156,0.141 -0.343,0.067 -0.192,-0.074 -0.278,-0.067 -0.2,0.015 0.082,0.079 -0.507,0.528 -1.308,0.997 -0.797,0.468 -2.129,1.394 -2.957,2.058 -1.492,1.203 -1.5,1.207 -1.637,0.703 -0.227,-0.832 -1.094,-1.8 -1.789,-2.004 l -0.656,-0.187 1.113,-0.961 c 1.078,-0.934 3.488,-2.512 3.848,-2.527 0.097,-0.004 1.019,0.363 2.054,0.816 z m 4.653,2.219 c 0.839,0.461 2.14,1.297 2.886,1.851 l 1.36,1.016 -0.715,0.148 c -0.934,0.192 -1.891,0.696 -2.34,1.227 -0.629,0.746 -0.992,2.285 -0.75,3.184 0.117,0.433 0.184,0.812 0.148,0.843 -0.035,0.032 -0.796,0.094 -1.691,0.145 l -1.629,0.09 0.301,-0.875 c 0.363,-1.067 0.102,-2.395 -0.672,-3.41 -0.656,-0.86 -1.367,-1.208 -2.879,-1.395 l -1.25,-0.16 0.961,-0.699 c 0.832,-0.61 4.457,-2.782 4.668,-2.797 0.043,-0.004 0.766,0.371 1.602,0.832 z m -27.465,6.886 c 0.359,0.375 0.652,0.856 0.652,1.067 0,0.215 0.059,0.535 0.125,0.715 0.113,0.297 0.168,0.289 0.551,-0.059 0.648,-0.586 1.441,-0.695 2.242,-0.316 0.742,0.351 1.344,1.031 1.164,1.32 -0.058,0.094 0.016,0.148 0.16,0.117 0.184,-0.039 0.297,0.258 0.364,0.946 l 0.101,1.003 0.863,-0.054 c 1.032,-0.067 1.832,0.351 2.364,1.23 0.605,0.996 0.679,1.512 0.394,2.731 -0.273,1.16 -1.746,3.711 -2,3.453 -0.078,-0.074 -0.086,0 -0.023,0.164 0.183,0.48 -1.981,2.558 -3.285,3.156 -0.961,0.442 -1.407,0.512 -3.203,0.524 -1.446,0.007 -2.11,-0.063 -2.165,-0.227 -0.046,-0.133 -0.199,-0.195 -0.339,-0.141 -0.754,0.289 -2.555,-2.23 -3.407,-4.765 -0.839,-2.496 -0.613,-5.371 0.68,-8.731 0.746,-1.925 1.125,-2.445 2.035,-2.773 1.024,-0.371 1.977,-0.145 2.727,0.64 z m 54.66,-0.589 c 1.801,0.855 3.199,6.937 2.48,10.761 -0.14,0.731 -0.332,1.278 -0.425,1.219 -0.098,-0.062 -0.133,0.008 -0.078,0.152 0.164,0.426 -1.543,3.211 -2.262,3.692 -0.36,0.242 -1.262,0.539 -2.008,0.668 -3.102,0.523 -5.809,-0.926 -8.348,-4.469 -1.285,-1.789 -1.886,-3.687 -1.519,-4.797 0.281,-0.851 1.179,-1.801 1.562,-1.656 0.149,0.059 0.227,0.027 0.164,-0.066 -0.164,-0.27 0.832,-0.395 1.653,-0.207 0.89,0.199 0.957,0.148 0.562,-0.454 -0.281,-0.433 -0.273,-0.539 0.133,-1.339 0.684,-1.344 2.121,-1.934 3.469,-1.418 0.594,0.222 0.937,-0.028 0.742,-0.543 -0.059,-0.149 0.254,-0.629 0.695,-1.071 0.68,-0.679 0.926,-0.8 1.645,-0.8 0.465,0 1.156,0.148 1.535,0.328 z m 2.785,2.422 c -0.058,0.152 -0.023,0.226 0.074,0.164 0.254,-0.157 1.489,1.878 2.243,3.687 0.714,1.719 2.656,7.715 3.082,9.524 0.414,1.75 1.101,7.546 1.101,9.277 v 1.492 l -0.437,-0.551 c -1.11,-1.414 -3.485,-1.441 -4.95,-0.058 l -0.574,0.543 -0.125,-0.621 c -0.07,-0.34 -0.125,-0.938 -0.125,-1.325 0,-0.386 -0.234,-2.023 -0.523,-3.629 -0.293,-1.609 -0.539,-3.105 -0.551,-3.328 -0.016,-0.218 -0.074,-0.445 -0.137,-0.5 -0.058,-0.054 -0.207,-0.441 -0.332,-0.855 -0.211,-0.711 -0.176,-0.844 0.528,-2.051 0.418,-0.711 0.828,-1.227 0.918,-1.144 0.089,0.078 0.101,0.042 0.027,-0.086 -0.07,-0.129 0.012,-0.852 0.191,-1.602 0.516,-2.199 0.301,-5.852 -0.484,-8.281 -0.531,-1.637 -0.563,-1.836 -0.219,-1.418 0.219,0.265 0.352,0.609 0.293,0.762 z m -28.101,0.968 c 1.402,0.723 4.757,2.918 4.757,3.106 0,0.101 0.121,0.187 0.266,0.187 0.148,0 0.895,0.653 1.664,1.453 2.301,2.383 3.293,4.082 4.137,7.059 0.277,0.992 0.511,1.937 0.515,2.102 0.008,0.167 0.094,0.699 0.2,1.183 0.168,0.809 0.136,0.953 -0.395,1.684 -0.449,0.621 -0.578,1.015 -0.578,1.777 v 0.977 l 0.492,-0.325 c 0.27,-0.175 0.594,-0.257 0.723,-0.179 0.41,0.254 0.051,1.695 -0.688,2.773 -0.976,1.422 -1.152,1.988 -1.117,3.617 0.016,0.895 -0.086,1.676 -0.285,2.137 -0.191,0.449 -0.266,0.996 -0.195,1.434 0.105,0.664 0.148,0.695 0.675,0.543 0.379,-0.106 0.594,-0.082 0.649,0.07 0.129,0.348 -0.055,0.734 -0.344,0.734 -0.141,0 -0.48,0.176 -0.75,0.387 -0.426,0.332 -0.609,0.359 -1.308,0.184 -1.047,-0.266 -2.071,0.179 -2.68,1.164 -0.344,0.554 -0.41,0.91 -0.336,1.8 l 0.09,1.106 -1.074,0.512 c -0.594,0.281 -1.161,0.668 -1.266,0.859 -0.164,0.309 -0.281,0.258 -1.027,-0.453 -0.829,-0.789 -0.86,-0.801 -2.071,-0.703 -1.508,0.121 -1.969,0.386 -2.801,1.609 l -0.652,0.957 -1.086,-1.07 c -0.773,-0.758 -1.359,-1.145 -2.031,-1.332 -0.879,-0.246 -1.008,-0.231 -1.922,0.219 -0.953,0.472 -0.992,0.476 -1.754,0.14 -0.973,-0.429 -2.609,-0.465 -3.547,-0.07 -0.937,0.391 -0.894,0.41 -1.051,-0.418 -0.097,-0.524 -0.046,-0.805 0.176,-1.027 0.278,-0.282 0.371,-0.266 0.949,0.144 0.79,0.563 1.016,0.324 0.965,-1.023 -0.066,-1.692 -1.597,-2.762 -3.16,-2.219 -0.543,0.191 -0.676,0.156 -1.105,-0.274 -0.27,-0.273 -0.625,-0.492 -0.789,-0.492 -0.426,0 -0.598,-0.371 -0.325,-0.699 0.168,-0.203 0.368,-0.23 0.715,-0.098 l 0.485,0.184 0.015,-2.047 c 0.008,-1.125 0.012,-2.226 0.012,-2.449 0,-0.219 -0.066,-0.715 -0.145,-1.102 -0.082,-0.382 -0.152,-0.761 -0.164,-0.836 -0.007,-0.078 -0.343,-0.574 -0.75,-1.105 -0.855,-1.121 -1.089,-1.859 -0.777,-2.445 0.27,-0.5 0.477,-0.524 0.898,-0.106 0.524,0.528 0.442,-1.789 -0.085,-2.461 -0.317,-0.402 -0.403,-0.812 -0.403,-1.953 0,-2.031 0.621,-4.273 1.844,-6.668 1.328,-2.601 2.18,-3.726 3.566,-4.707 1.266,-0.894 6.871,-3.676 8.211,-4.078 1.27,-0.375 3.711,-0.254 4.657,0.238 z m -3.704,0.231 c -0.304,0.047 -0.55,0.172 -0.55,0.281 0,0.121 0.289,0.137 0.75,0.047 0.851,-0.172 1.437,-0.168 2.156,0.012 0.273,0.07 0.496,0.046 0.496,-0.055 0,-0.371 -1.379,-0.508 -2.852,-0.285 z m 1.782,3.801 c -0.078,0.074 -0.692,0.203 -1.364,0.281 -0.929,0.109 -1.347,0.269 -1.742,0.664 -0.476,0.476 -0.488,0.519 -0.125,0.519 0.219,0 0.926,-0.089 1.571,-0.195 0.917,-0.148 1.328,-0.129 1.878,0.102 0.622,0.261 0.672,0.261 0.454,-0.008 -0.149,-0.18 -0.204,-0.543 -0.133,-0.903 0.117,-0.578 -0.176,-0.824 -0.539,-0.46 z m -5.434,3.238 c 0.246,0.246 -0.68,0.566 -1.488,0.512 -0.508,-0.032 -0.696,-0.012 -0.418,0.046 0.578,0.118 1.176,0.793 1.222,1.375 0.016,0.219 0.086,0.082 0.157,-0.3 0.109,-0.621 0.199,-0.711 0.797,-0.766 0.504,-0.051 0.859,0.078 1.402,0.512 1.094,0.867 1.133,0.883 2.73,0.965 1.446,0.07 1.504,0.054 2.313,-0.622 0.934,-0.781 1.793,-0.925 1.793,-0.304 0,0.215 0.09,0.445 0.199,0.515 0.113,0.067 0.199,-0.086 0.199,-0.351 0,-0.602 0.352,-0.953 0.953,-0.953 0.266,0 0.418,-0.086 0.352,-0.2 -0.164,-0.265 -1.305,-0.257 -1.305,0.004 0,0.114 -0.211,0.067 -0.476,-0.105 -0.391,-0.258 -0.957,-0.297 -3.153,-0.227 -1.472,0.047 -3.285,0.024 -4.023,-0.05 -0.738,-0.079 -1.305,-0.102 -1.254,-0.051 z m 3.613,5.219 c -0.074,0.121 -0.527,0.218 -1.004,0.218 -0.746,0 -0.96,0.102 -1.492,0.707 -0.894,1.02 -0.797,1.871 0.297,2.59 l 0.531,0.348 -0.621,-0.903 c -0.543,-0.792 -0.582,-0.929 -0.312,-1.152 0.222,-0.187 0.504,-0.203 1.047,-0.062 0.539,0.14 0.972,0.117 1.593,-0.086 0.633,-0.207 1.004,-0.227 1.454,-0.071 0.605,0.211 1.371,0.043 2.3,-0.507 0.61,-0.364 0.149,-0.668 -1.328,-0.875 -0.703,-0.102 -1.512,-0.239 -1.804,-0.305 -0.297,-0.07 -0.586,-0.027 -0.661,0.098 z m 7.602,6.878 c -0.215,0.118 -0.934,0.278 -1.598,0.348 -1.082,0.117 -1.148,0.149 -0.621,0.297 0.844,0.242 3.078,-0.402 2.699,-0.777 -0.046,-0.051 -0.261,0.011 -0.48,0.132 z m -11.488,0.661 c 0.23,0.386 0.359,0.765 0.293,0.836 -0.071,0.07 -0.848,0.007 -1.727,-0.133 -1.949,-0.317 -3.547,-0.149 -4.445,0.465 -0.539,0.367 -0.657,0.574 -0.629,1.105 0.066,1.41 1.859,2.488 3.961,2.387 0.699,-0.035 1.242,-0.117 1.199,-0.184 -0.078,-0.129 0.801,-0.582 1.133,-0.582 0.105,0 0.269,0.199 0.359,0.442 0.156,0.418 0.195,0.394 0.719,-0.395 1.043,-1.578 0.851,-3.293 -0.473,-4.238 -0.808,-0.574 -0.875,-0.524 -0.39,0.297 z m -4.555,1.39 c -0.211,0.321 -0.301,0.781 -0.25,1.301 0.043,0.441 0.012,0.805 -0.07,0.805 -0.078,0 -0.391,-0.325 -0.692,-0.719 -0.609,-0.797 -0.527,-1.184 0.348,-1.633 0.797,-0.41 1.035,-0.324 0.664,0.246 z m 4.551,-0.164 c 0.605,-0.16 0.465,0.75 -0.25,1.559 -0.34,0.39 -0.688,0.711 -0.77,0.711 -0.082,0 -0.14,-0.399 -0.129,-0.883 0.012,-0.598 -0.101,-1.012 -0.351,-1.289 -0.375,-0.414 -0.371,-0.414 0.375,-0.207 0.41,0.113 0.918,0.164 1.125,0.109 z m -1.914,1.067 c 0.047,0 0.082,0.171 0.082,0.378 0,0.504 -0.594,0.715 -0.969,0.34 -0.246,-0.25 -0.254,-0.351 -0.031,-0.617 0.144,-0.176 0.394,-0.269 0.55,-0.211 0.157,0.059 0.321,0.11 0.368,0.11 z m -0.719,-2.438 c 0.441,0.277 2.555,0.527 2.305,0.274 -0.11,-0.114 -0.743,-0.262 -1.403,-0.333 -0.781,-0.082 -1.097,-0.062 -0.902,0.059 z m 14.019,0.484 c -0.492,0.122 -1.312,0.227 -1.812,0.235 -0.863,0.015 -0.91,0.043 -0.82,0.515 0.086,0.45 0.058,0.473 -0.239,0.227 -0.297,-0.246 -0.332,-0.207 -0.332,0.375 0,0.574 0.762,1.777 1.239,1.953 0.078,0.031 0.457,0.188 0.847,0.352 0.899,0.379 3.321,0.39 4.215,0.015 0.371,-0.156 0.731,-0.246 0.793,-0.199 0.066,0.047 0.078,0.031 0.035,-0.035 -0.047,-0.063 0.133,-0.438 0.399,-0.828 0.761,-1.117 0.562,-2.016 -0.52,-2.36 -0.223,-0.07 -0.367,-0.191 -0.32,-0.265 0.137,-0.227 -2.524,-0.215 -3.485,0.015 z m 3.465,0.477 c 0.356,0.18 0.672,0.348 0.703,0.379 0.161,0.137 -0.57,1.488 -0.894,1.664 -0.328,0.176 -0.367,0.105 -0.367,-0.664 0,-0.566 -0.133,-1.008 -0.383,-1.285 -0.344,-0.379 -0.348,-0.418 -0.039,-0.418 0.187,0 0.629,0.144 0.98,0.324 z m -4.023,0.316 c -0.317,0.317 -0.309,1.809 0.008,2.153 0.207,0.219 0.195,0.238 -0.047,0.109 -0.59,-0.316 -0.992,-0.758 -0.867,-0.961 0.07,-0.113 0.027,-0.14 -0.094,-0.066 -0.238,0.148 -0.645,-0.453 -0.645,-0.949 0,-0.278 0.414,-0.414 1.493,-0.497 0.304,-0.023 0.339,0.024 0.152,0.211 z m 2.726,1.215 c 0.079,0.414 -0.5,0.692 -0.804,0.387 -0.305,-0.305 -0.028,-0.883 0.386,-0.805 0.192,0.039 0.379,0.223 0.418,0.418 z m -4.371,4.125 c 0,0.27 1.996,1.074 2.918,1.18 0.91,0.102 3.02,-0.273 3.207,-0.574 0.133,-0.215 -1.226,-0.133 -1.449,0.09 -0.312,0.308 -2.226,0.097 -3.371,-0.372 -1.383,-0.57 -1.305,-0.55 -1.305,-0.324 z m -10.511,0.367 c -0.536,0.211 -1.457,0.313 -2.778,0.313 -1.168,0 -1.859,0.07 -1.699,0.172 0.773,0.488 4.941,0.012 5.668,-0.653 0.293,-0.265 -0.289,-0.183 -1.191,0.168 z M 154.66,113.349 c -0.176,0.649 -0.371,2.098 -0.433,3.219 -0.102,1.828 -0.063,2.211 0.41,3.707 0.285,0.914 0.867,2.25 1.285,2.969 l 0.762,1.301 -0.543,2.402 c -0.602,2.66 -1.172,6.258 -1.172,7.41 v 0.742 l -0.684,-0.597 c -1.297,-1.141 -2.687,-1.278 -4.344,-0.434 -0.41,0.211 -0.789,0.496 -0.847,0.637 -0.215,0.535 -0.121,-2.516 0.172,-5.567 0.445,-4.636 1.406,-8.308 3.191,-12.172 0.391,-0.843 0.711,-1.632 0.711,-1.75 0,-0.113 0.102,-0.144 0.23,-0.066 0.141,0.09 0.176,0.055 0.086,-0.09 -0.125,-0.203 1.286,-3.098 1.438,-2.949 0.031,0.031 -0.086,0.59 -0.262,1.238 z m 18.758,5.192 0.523,0.125 -0.878,1.629 c -1.129,2.101 -1.872,4.769 -1.872,6.753 v 1.504 l -0.73,0.231 c -0.688,0.215 -0.758,0.195 -1.219,-0.352 -0.691,-0.824 -1.683,-0.808 -2.476,0.039 -0.321,0.344 -0.582,0.75 -0.582,0.903 0,0.152 -0.09,0.277 -0.204,0.277 -0.113,0 -0.55,0.23 -0.972,0.508 -1.074,0.711 -1.356,1.691 -0.918,3.195 0.176,0.609 0.394,1.106 0.48,1.106 0.086,0 0.41,-0.36 0.715,-0.801 0.438,-0.633 0.613,-0.758 0.828,-0.578 0.422,0.351 0.328,0.863 -0.398,2.238 -0.434,0.812 -0.719,1.691 -0.805,2.465 -0.129,1.137 -0.172,1.211 -0.785,1.394 -0.473,0.137 -0.762,0.418 -1.078,1.055 -0.418,0.82 -0.449,0.84 -0.668,0.438 -0.301,-0.567 -1.828,-1.204 -2.871,-1.2 -1.199,0.008 -2.41,0.629 -3.113,1.594 -0.329,0.457 -0.645,0.938 -0.7,1.07 -0.062,0.149 -0.289,0.028 -0.609,-0.324 -0.91,-0.992 -2.598,-1.371 -4.18,-0.93 -0.855,0.239 -2.547,1.743 -2.547,2.262 0,0.278 -0.074,0.305 -0.386,0.137 -0.629,-0.336 -2.223,-0.242 -3.106,0.187 -0.554,0.27 -1.015,0.719 -1.445,1.418 l -0.629,1.024 -0.227,-1.059 c -0.441,-2.058 -0.851,-5.496 -0.769,-6.488 0.098,-1.25 0.855,-2.805 1.672,-3.426 0.562,-0.43 1.226,-0.558 2.386,-0.461 0.571,0.051 1.657,1.141 1.915,1.922 0.121,0.367 0.296,0.668 0.39,0.668 0.09,0 0.309,0.055 0.485,0.121 0.183,0.07 0.316,0.016 0.316,-0.129 0,-0.984 1.633,-2.847 2.195,-2.504 0.098,0.063 0.239,0.02 0.305,-0.09 0.191,-0.312 0.676,-0.246 1.602,0.215 1.042,0.52 1.457,1.2 1.628,2.657 0.075,0.621 0.188,1.128 0.254,1.128 0.071,0 0.328,-0.355 0.575,-0.789 0.507,-0.894 1.554,-1.753 2.152,-1.777 1.387,-0.051 2.465,0.586 2.922,1.731 0.101,0.257 0.316,0.437 0.476,0.402 0.239,-0.055 0.313,-0.676 0.387,-3.27 0.082,-2.769 0.727,-8.035 1.047,-8.554 0.055,-0.086 0.363,-0.16 0.68,-0.16 1.972,0 4.285,-1.821 6.183,-4.868 0.586,-0.945 1.219,-1.847 1.399,-2.004 0.55,-0.484 1.511,-0.921 1.828,-0.839 0.164,0.046 0.535,0.14 0.824,0.207 z m 28.945,0.316 c 0.285,0.266 1.047,1.238 1.696,2.164 1.097,1.57 3.742,4.223 4.207,4.223 0.113,0 0.164,0.07 0.109,0.152 -0.051,0.082 0.102,0.16 0.34,0.168 0.238,0.012 0.926,0.156 1.523,0.324 l 1.094,0.301 0.352,2.18 c 0.457,2.84 0.781,6.629 0.718,8.39 -0.066,1.801 0.293,1.953 1.223,0.516 1.289,-1.988 3.25,-1.75 4.688,0.574 l 0.421,0.684 0.227,-1.137 c 0.254,-1.266 0.902,-2.101 2.059,-2.648 1.5,-0.715 3.019,0.226 3.777,2.336 0.324,0.906 0.672,1.293 0.672,0.75 0,-0.539 1.047,-2.375 1.554,-2.731 1.2,-0.84 2.899,-0.668 3.887,0.391 0.309,0.328 0.707,1.066 0.887,1.64 0.305,0.965 0.305,1.235 0,3.641 -0.18,1.426 -0.43,3.07 -0.555,3.648 l -0.226,1.051 -0.664,-0.773 c -0.364,-0.426 -0.934,-0.887 -1.266,-1.024 -0.336,-0.14 -0.57,-0.312 -0.523,-0.386 0.101,-0.168 -2.547,0.066 -2.844,0.25 -0.121,0.074 -0.274,-0.024 -0.336,-0.215 -0.188,-0.574 -1.535,-1.887 -2.246,-2.184 -1.391,-0.578 -3.672,-0.109 -4.555,0.938 -0.48,0.574 -0.484,0.574 -0.598,0.121 -0.183,-0.735 -1.285,-1.875 -2.144,-2.215 -0.981,-0.395 -1.992,-0.406 -2.879,-0.035 -0.371,0.156 -0.731,0.23 -0.793,0.164 -0.066,-0.063 -0.117,-0.016 -0.117,0.105 0,0.121 -0.156,0.27 -0.352,0.332 -0.191,0.063 -0.5,0.379 -0.683,0.703 -0.282,0.497 -0.293,0.629 -0.063,0.821 0.219,0.179 0.43,0.074 0.985,-0.481 0.851,-0.851 1.984,-1.234 3.046,-1.035 0.942,0.176 2.176,1.43 2.36,2.399 0.094,0.5 0.246,0.691 0.605,0.761 0.383,0.071 0.578,-0.058 0.946,-0.625 0.632,-0.968 1.984,-1.531 3.23,-1.343 1.117,0.168 2.438,1.398 2.637,2.453 0.144,0.777 0.269,0.808 1.152,0.269 0.902,-0.551 2.125,-0.523 2.981,0.071 0.375,0.257 0.656,0.578 0.625,0.714 -0.028,0.133 0.039,0.188 0.156,0.114 0.121,-0.075 0.39,0.277 0.629,0.816 l 0.414,0.941 -0.805,2.426 c -1.023,3.067 -1.605,4.418 -1.625,3.758 -0.027,-0.863 -1,-2.348 -1.855,-2.828 -0.746,-0.422 -3.25,-0.902 -3.059,-0.59 0.047,0.078 -0.078,0.184 -0.281,0.234 -0.27,0.075 -0.426,-0.066 -0.598,-0.539 -0.355,-0.98 -1.32,-1.836 -2.363,-2.101 -1.09,-0.274 -1.887,-0.137 -2.899,0.504 l -0.73,0.461 -0.16,-0.641 c -0.086,-0.352 -0.153,-0.75 -0.145,-0.887 0.008,-0.136 -0.054,-0.207 -0.136,-0.156 -0.083,0.051 -0.391,-0.172 -0.68,-0.5 -0.293,-0.328 -0.625,-0.598 -0.742,-0.598 -0.118,0 -0.168,-0.07 -0.114,-0.156 0.055,-0.086 -0.519,-0.183 -1.273,-0.211 -1.516,-0.062 -2.707,0.375 -3.293,1.211 -0.273,0.391 -0.277,0.481 -0.02,0.738 0.258,0.258 0.344,0.227 0.723,-0.253 0.25,-0.321 0.555,-0.504 0.719,-0.442 0.16,0.063 0.238,0.031 0.18,-0.066 -0.157,-0.25 0.382,-0.418 1.343,-0.418 1.582,0 2.719,1.269 2.91,3.254 0.051,0.523 0.149,0.953 0.215,0.953 0.071,0 0.387,-0.328 0.703,-0.727 0.317,-0.398 0.977,-0.898 1.461,-1.113 0.828,-0.367 0.938,-0.371 1.825,-0.078 1.105,0.371 1.757,1.191 1.96,2.461 l 0.133,0.844 0.844,-0.493 c 1.023,-0.597 1.723,-0.625 2.801,-0.097 0.984,0.48 1.64,1.543 1.828,2.972 0.129,0.973 0.09,1.098 -0.793,2.512 -1,1.606 -4.207,4.832 -4.574,4.606 -0.121,-0.075 -0.16,-0.043 -0.086,0.074 0.176,0.281 -0.391,0.726 -0.692,0.539 -0.14,-0.086 -0.187,-0.063 -0.109,0.062 0.231,0.371 -2.019,1.051 -3.488,1.055 -1.387,0 -2.824,-0.512 -4.133,-1.477 -1.238,-0.91 -2.602,-2.742 -2.348,-3.156 0.09,-0.14 0.063,-0.183 -0.066,-0.105 -0.234,0.148 -0.582,-0.817 -1.219,-3.375 -0.219,-0.879 -0.551,-1.961 -0.738,-2.403 -0.188,-0.441 -0.34,-0.847 -0.336,-0.902 0,-0.055 -0.063,-0.145 -0.141,-0.199 -0.082,-0.055 -0.484,-0.481 -0.898,-0.946 l -0.754,-0.843 0.406,-1.094 c 0.293,-0.781 0.344,-1.117 0.176,-1.172 -0.156,-0.055 -0.258,-0.797 -0.301,-2.168 -0.094,-2.969 0.406,-3.746 1.774,-2.754 0.453,0.332 0.664,0.391 0.726,0.211 0.051,-0.137 0.164,-0.203 0.258,-0.144 0.094,0.058 0.234,0 0.316,-0.129 0.09,-0.153 0.059,-0.184 -0.093,-0.09 -0.172,0.105 -0.207,0.012 -0.118,-0.34 0.153,-0.609 -0.21,-2.023 -0.628,-2.441 -0.168,-0.168 -0.559,-0.309 -0.868,-0.309 -0.546,0 -0.558,-0.027 -0.675,-1.422 -0.067,-0.812 -0.289,-1.746 -0.516,-2.183 -0.219,-0.418 -0.344,-0.813 -0.277,-0.879 0.066,-0.067 0.011,-0.121 -0.121,-0.121 -0.426,0 -0.618,-0.864 -0.274,-1.25 0.418,-0.477 0.477,-0.457 1.024,0.351 0.261,0.383 0.535,0.699 0.609,0.699 0.207,0 0.617,-1.718 0.617,-2.574 0,-0.867 -0.519,-1.484 -1.547,-1.844 -0.445,-0.156 -0.668,-0.386 -0.754,-0.785 -0.261,-1.179 -1.386,-1.636 -2.558,-1.035 -1.293,0.664 -1.567,0.43 -1.848,-1.574 -0.199,-1.399 -0.195,-1.383 -0.871,-3.504 -0.348,-1.102 -0.941,-2.492 -1.316,-3.09 -0.375,-0.598 -0.629,-1.219 -0.571,-1.375 0.18,-0.469 1.953,-0.207 2.582,0.379 z m 14.352,7.789 c 0.437,1.813 1.098,6 1.242,7.887 l 0.125,1.574 -0.512,-0.402 c -1.011,-0.797 -2.918,-0.731 -3.843,0.132 l -0.414,0.383 -0.219,-2.836 c -0.121,-1.554 -0.375,-3.757 -0.563,-4.886 -0.187,-1.129 -0.297,-2.102 -0.238,-2.157 0.055,-0.058 0.676,-0.207 1.375,-0.328 0.699,-0.125 1.543,-0.39 1.875,-0.59 0.332,-0.203 0.66,-0.304 0.73,-0.222 0.071,0.078 0.27,0.73 0.442,1.445 z m -56.344,-0.449 c 0.609,0.051 1.125,0.109 1.152,0.129 0.024,0.023 -0.125,1.121 -0.332,2.437 -0.207,1.317 -0.441,3.508 -0.519,4.867 -0.082,1.356 -0.207,2.372 -0.277,2.258 -0.235,-0.379 -1.586,-0.828 -2.489,-0.828 -0.605,0 -1.105,0.152 -1.609,0.496 l -0.731,0.492 0.118,-1.144 c 0.113,-1.082 0.371,-2.879 0.894,-6.203 0.129,-0.801 0.313,-1.403 0.41,-1.344 0.098,0.063 0.129,-0.02 0.067,-0.176 -0.059,-0.16 -0.012,-0.656 0.109,-1.101 l 0.219,-0.809 0.941,0.418 c 0.516,0.231 1.438,0.457 2.047,0.508 z m 45.832,3.39 c 0.047,0.481 0.199,0.641 0.801,0.852 1.098,0.391 1.441,0.773 1.437,1.598 -0.007,0.586 -0.046,0.652 -0.211,0.367 -0.3,-0.512 -1.234,-0.438 -1.777,0.141 -0.656,0.699 -0.594,1.265 0.352,3.183 0.047,0.094 -0.11,0.067 -0.348,-0.058 -0.234,-0.129 -0.613,-0.176 -0.836,-0.102 -0.375,0.117 -0.394,0.07 -0.242,-0.641 0.09,-0.422 0.164,-1.492 0.164,-2.371 0,-1.328 -0.09,-1.777 -0.523,-2.636 l -0.524,-1.036 0.422,-0.195 c 0.59,-0.277 1.211,0.156 1.285,0.898 z m -37.582,-0.605 c 0.481,0.43 0.465,0.621 -0.129,1.902 -0.551,1.18 -0.668,2.844 -0.281,3.953 0.125,0.356 0.191,0.672 0.152,0.708 -0.043,0.035 -0.488,0.105 -0.988,0.16 l -0.918,0.097 0.379,-0.722 c 0.445,-0.856 0.371,-1.981 -0.18,-2.68 -0.347,-0.441 -0.418,-0.453 -1.023,-0.207 -0.356,0.144 -0.653,0.375 -0.656,0.512 -0.004,0.164 -0.067,0.148 -0.18,-0.047 -0.484,-0.828 0.617,-2.203 1.762,-2.203 0.312,0 0.429,-0.125 0.429,-0.457 0,-0.59 0.532,-1.348 0.946,-1.348 0.175,0 0.488,0.148 0.687,0.332 z m 35.199,0.652 c 1.004,1.071 1.262,2.868 0.739,5.102 -0.192,0.805 -0.442,1.312 -0.797,1.601 -0.282,0.235 -0.653,0.762 -0.824,1.176 -0.188,0.457 -0.442,0.75 -0.653,0.754 -0.191,0 -0.562,0.059 -0.824,0.129 -0.469,0.125 -0.473,0.117 -0.395,-1.266 0.067,-1.222 0.168,-1.523 0.813,-2.414 0.883,-1.23 1.258,-2.379 1.082,-3.316 -0.141,-0.754 -0.773,-1.465 -1.113,-1.254 -0.301,0.188 -0.262,-0.031 0.113,-0.601 0.441,-0.676 1.18,-0.641 1.859,0.089 z m -32.027,0.317 c 0.148,0.277 0.23,0.523 0.184,0.551 -0.047,0.027 -0.262,0.148 -0.485,0.269 -1.168,0.645 -1.121,2.195 0.125,3.973 0.762,1.086 0.86,1.363 0.938,2.601 0.078,1.239 0.054,1.367 -0.254,1.25 -0.188,-0.07 -0.641,-0.133 -1.008,-0.133 -0.586,0 -0.699,-0.085 -0.898,-0.687 -0.125,-0.379 -0.411,-0.922 -0.633,-1.207 -0.227,-0.285 -0.36,-0.656 -0.293,-0.824 0.062,-0.168 0.039,-0.258 -0.059,-0.196 -0.226,0.141 -0.621,-1.433 -0.621,-2.476 0,-0.918 0.551,-2.473 0.82,-2.309 0.098,0.063 0.125,-0.019 0.067,-0.176 -0.141,-0.363 0.82,-1.136 1.41,-1.136 0.262,0 0.547,0.199 0.707,0.5 z m 34.535,6.625 c 0.457,0.457 0.391,0.621 -0.289,0.758 -0.844,0.168 -1.066,0.847 -0.789,2.382 0.211,1.153 0.191,1.258 -0.445,2.676 -0.578,1.285 -0.715,1.457 -1.067,1.328 -0.832,-0.308 -2.062,-0.156 -2.566,0.317 -0.426,0.402 -0.5,0.418 -0.613,0.129 -0.204,-0.536 -0.153,-0.633 0.492,-0.903 0.57,-0.234 0.984,-0.855 0.984,-1.468 0,-0.45 -0.828,-1.168 -1.222,-1.063 -0.454,0.117 -0.454,0.105 -0.098,-0.746 0.195,-0.473 0.441,-0.699 0.851,-0.777 0.313,-0.063 0.645,-0.043 0.731,0.043 0.09,0.085 0.371,0.113 0.629,0.066 0.359,-0.07 0.496,-0.262 0.586,-0.824 0.144,-0.907 0.676,-1.696 1.047,-1.551 0.152,0.059 0.257,0.004 0.23,-0.121 -0.027,-0.125 0.176,-0.293 0.453,-0.371 0.735,-0.219 0.742,-0.219 1.086,0.125 z m -37.238,0.566 c 0.285,0.375 0.57,1.008 0.637,1.403 0.113,0.714 0.125,0.722 1.105,0.722 1.234,0 1.762,0.27 1.762,0.903 0,0.351 -0.137,0.523 -0.485,0.613 -0.515,0.129 -1,1.012 -0.882,1.621 0.035,0.203 0.382,0.523 0.769,0.715 0.711,0.355 1.176,1.093 1.192,1.906 0.003,0.246 -0.083,0.449 -0.192,0.449 -0.109,0 -0.203,-0.105 -0.203,-0.23 0,-0.129 -0.223,-0.528 -0.496,-0.887 -0.633,-0.828 -1.453,-1.023 -2.402,-0.574 -0.395,0.187 -0.743,0.308 -0.77,0.265 -0.027,-0.043 -0.336,-0.796 -0.687,-1.679 -0.563,-1.43 -0.622,-1.746 -0.512,-2.957 0.097,-1.133 0.058,-1.422 -0.242,-1.754 -0.196,-0.215 -0.524,-0.395 -0.727,-0.395 -0.203,0 -0.371,-0.074 -0.371,-0.16 0,-0.367 0.527,-0.641 1.23,-0.641 0.622,0 0.844,0.118 1.274,0.68 z m -1.902,1.801 c 0,0.871 -0.09,0.926 -0.903,0.543 -0.512,-0.238 -0.687,-0.449 -0.691,-0.82 0,-0.293 0.058,-0.407 0.144,-0.27 0.114,0.176 0.274,0.168 0.645,-0.031 0.64,-0.344 0.805,-0.227 0.805,0.578 z m 39.746,-0.648 c 0.281,0.128 0.511,0.39 0.511,0.582 0,0.371 -0.515,0.668 -0.824,0.476 -0.105,-0.066 -0.164,-0.008 -0.133,0.121 0.032,0.133 -0.047,0.278 -0.168,0.324 -0.125,0.047 -0.273,-0.234 -0.343,-0.656 -0.18,-1.105 0.015,-1.277 0.957,-0.847 z m -40.93,2.027 c 0.766,0.515 1.828,2.262 1.703,2.801 -0.047,0.191 -0.012,0.308 0.07,0.254 0.086,-0.051 0.293,0.265 0.465,0.703 0.301,0.761 0.297,0.793 -0.078,0.793 -0.215,0 -0.703,0.132 -1.082,0.293 l -0.695,0.289 v -1.481 c 0,-0.812 -0.09,-1.711 -0.199,-1.996 -0.278,-0.73 -1.032,-1.031 -1.907,-0.762 -0.609,0.188 -0.699,0.172 -0.699,-0.121 0,-0.187 0.141,-0.539 0.313,-0.785 0.406,-0.578 1.234,-0.574 2.109,0.012 z m 43.328,-0.055 c 0.059,0.223 0.16,0.578 0.223,0.789 0.101,0.352 0.058,0.364 -0.492,0.156 -1.403,-0.527 -2.418,0.614 -2.418,2.719 v 1.16 l -0.75,-0.132 c -0.836,-0.149 -1.309,-0.481 -0.903,-0.629 0.141,-0.051 0.199,-0.176 0.137,-0.278 -0.149,-0.242 0.785,-2.277 1.445,-3.14 0.574,-0.758 1.078,-1.016 2.008,-1.032 0.477,-0.011 0.668,0.09 0.75,0.387 z m -48.496,0.324 c 0.355,0.176 0.855,0.59 1.117,0.914 0.262,0.325 0.594,0.543 0.735,0.489 0.144,-0.055 0.406,0.117 0.578,0.383 0.324,0.496 0.918,0.488 0.918,-0.016 0,-0.395 0.796,-0.582 1.105,-0.262 0.305,0.313 0.453,3.848 0.211,5.008 -0.117,0.551 -0.051,0.961 0.262,1.668 l 0.414,0.934 -0.781,1.058 c -0.973,1.32 -1.739,3.106 -1.985,4.645 -0.324,2.011 -1.18,3.84 -2.32,4.953 -1.293,1.262 -1.481,1.414 -2.242,1.801 -0.637,0.324 -2.789,0.746 -3.172,0.621 -0.113,-0.039 -0.559,-0.121 -0.985,-0.18 -1.75,-0.254 -5.074,-2.625 -6.64,-4.734 -1.227,-1.649 -1.524,-2.176 -1.371,-2.422 0.078,-0.125 0.05,-0.168 -0.063,-0.102 -0.109,0.071 -0.312,-0.082 -0.445,-0.336 -0.195,-0.359 -0.195,-0.66 -0.016,-1.343 0.305,-1.157 1.141,-2.586 1.512,-2.586 0.16,0 0.289,-0.086 0.289,-0.188 0,-0.105 0.406,-0.25 0.898,-0.324 0.801,-0.121 1.231,-0.047 2.348,0.406 0.266,0.109 0.379,-0.023 0.543,-0.633 0.113,-0.422 0.457,-1.062 0.766,-1.425 0.453,-0.536 0.742,-0.676 1.574,-0.774 1.254,-0.144 2.168,0.246 2.887,1.234 0.273,0.379 0.558,0.692 0.632,0.696 0.071,0.004 0.192,-0.442 0.266,-0.992 0.238,-1.715 1.715,-3.207 3.172,-3.207 0.668,0 1.16,0.199 1.023,0.418 -0.058,0.097 0.016,0.128 0.168,0.07 0.153,-0.059 0.516,0.137 0.809,0.43 0.449,0.449 0.586,0.492 0.844,0.277 0.277,-0.227 0.25,-0.32 -0.227,-0.817 -1.742,-1.82 -4.398,-1.48 -5.863,0.75 l -0.676,1.032 -0.828,-0.375 c -0.973,-0.446 -2.477,-0.492 -3.387,-0.114 -0.625,0.262 -1.535,1.262 -1.801,1.981 -0.105,0.285 -0.285,0.324 -1.015,0.223 -0.492,-0.067 -1.356,-0.008 -1.926,0.128 -0.848,0.204 -1.144,0.399 -1.617,1.051 -0.32,0.442 -0.692,1.106 -0.828,1.477 -0.133,0.371 -0.305,0.676 -0.383,0.676 -0.231,0 -1.199,-2.61 -1.055,-2.844 0.078,-0.129 0.043,-0.164 -0.086,-0.086 -0.14,0.09 -0.371,-0.359 -0.632,-1.242 -0.372,-1.25 -0.387,-1.457 -0.129,-2.188 0.433,-1.222 1.152,-2.215 1.851,-2.551 0.82,-0.39 2.067,-0.386 2.637,0.016 0.586,0.41 0.949,0.262 1.129,-0.449 0.16,-0.656 0.887,-1.508 1.144,-1.348 0.098,0.059 0.153,-0.008 0.121,-0.148 -0.031,-0.141 0.262,-0.367 0.649,-0.504 1.937,-0.688 3.469,0.07 4.406,2.183 0.231,0.524 0.453,0.95 0.496,0.95 0.039,0 0.18,-0.512 0.313,-1.141 0.34,-1.633 1.383,-3.113 2.226,-3.156 0.074,-0.004 0.203,-0.074 0.285,-0.16 0.262,-0.258 1.481,-0.161 2.145,0.175 z m 38.637,3.746 c 0.89,0.653 1.261,2.465 0.738,3.61 l -0.219,0.484 -0.672,-0.426 c -0.484,-0.308 -0.672,-0.578 -0.679,-0.964 -0.012,-0.774 -0.352,-1.555 -0.735,-1.704 -0.183,-0.07 -0.593,-0.031 -0.906,0.086 -0.816,0.309 -0.762,-0.199 0.117,-1.078 0.574,-0.574 0.781,-0.664 1.25,-0.547 0.313,0.079 0.809,0.321 1.106,0.539 z m -23.192,0.153 c 0.285,0.336 0.52,0.68 0.52,0.758 0,0.082 -0.328,0.148 -0.727,0.148 -1.152,0 -1.551,0.641 -1.379,2.227 0.114,1.05 0.086,1.257 -0.172,1.257 -0.5,0 -0.578,-0.351 -0.543,-2.476 0.028,-1.625 0.098,-2.082 0.364,-2.281 0.59,-0.45 1.379,-0.297 1.937,0.367 z m -4.797,0.258 c 0.266,0.265 0.672,1.129 0.918,1.953 0.598,2.015 0.918,2.574 1.614,2.816 0.468,0.164 0.547,0.266 0.367,0.481 -0.301,0.363 -0.27,3.562 0.035,3.375 0.074,-0.047 0.187,0.047 0.25,0.207 0.113,0.3 1.539,1.109 1.949,1.109 0.156,0 0.199,-0.238 0.121,-0.715 -0.09,-0.543 -0.023,-0.801 0.274,-1.101 0.215,-0.211 0.48,-0.387 0.586,-0.387 0.285,0 0.757,1.226 0.906,2.344 0.18,1.363 0.547,2.879 0.844,3.465 l 0.254,0.5 -1.45,0.058 c -2.031,0.086 -2.57,-0.055 -3.738,-0.984 -1.625,-1.297 -1.949,-2.035 -2.191,-5.047 -0.227,-2.805 -0.582,-3.789 -1.407,-3.91 -0.253,-0.035 -0.632,0.093 -0.847,0.289 -0.375,0.34 -0.41,0.336 -0.801,-0.055 -0.223,-0.223 -0.484,-0.738 -0.574,-1.144 -0.285,-1.262 1.176,-3.668 2.258,-3.723 0.086,-0.004 0.371,0.207 0.632,0.469 z m 32.52,0.199 c 0.926,0.926 0.957,2.887 0.066,4.293 l -0.289,0.461 -0.554,-0.531 c -0.43,-0.415 -0.653,-0.497 -1.02,-0.372 -0.258,0.09 -0.547,0.141 -0.637,0.118 -0.09,-0.028 -0.105,0.05 -0.031,0.168 0.07,0.117 0.027,0.339 -0.101,0.496 -0.129,0.152 -0.352,1.578 -0.497,3.164 -0.253,2.797 -0.527,3.883 -0.914,3.64 -0.105,-0.062 -0.14,0.016 -0.078,0.176 0.164,0.422 -1.394,1.781 -2.386,2.078 -0.458,0.137 -1.208,0.25 -1.665,0.254 -0.812,0 -0.828,-0.012 -0.605,-0.48 0.125,-0.27 0.297,-0.442 0.379,-0.391 0.082,0.051 0.101,-0.039 0.039,-0.203 -0.063,-0.164 -0.02,-0.469 0.094,-0.684 0.113,-0.211 0.312,-1.207 0.441,-2.214 0.129,-1.004 0.313,-1.778 0.406,-1.719 0.094,0.058 0.133,-0.012 0.082,-0.156 -0.05,-0.141 0.032,-0.426 0.184,-0.625 0.227,-0.297 0.355,-0.325 0.695,-0.145 0.344,0.184 0.418,0.414 0.418,1.32 v 1.102 l 0.75,-0.387 c 0.414,-0.211 0.977,-0.625 1.254,-0.922 0.453,-0.488 0.5,-0.703 0.516,-2.371 0.008,-1.082 0.121,-2.035 0.273,-2.316 0.141,-0.266 0.317,-1.199 0.395,-2.078 0.117,-1.36 0.211,-1.661 0.621,-1.993 0.598,-0.484 1.492,-0.355 2.164,0.317 z m -35.816,0.805 c 0,0.503 -0.665,1.402 -1.262,1.707 l -0.738,0.375 0.128,-0.528 c 0.168,-0.719 0.266,-0.859 0.489,-0.719 0.105,0.067 0.168,0.008 0.136,-0.128 -0.031,-0.137 0.172,-0.372 0.446,-0.516 0.504,-0.262 0.801,-0.336 0.801,-0.191 z m 38.144,0.429 c 0.527,0.571 0.859,1.668 0.387,1.274 -0.153,-0.125 -0.453,-0.176 -0.676,-0.121 -0.309,0.082 -0.402,0.007 -0.402,-0.325 -0.004,-0.238 -0.059,-0.636 -0.125,-0.882 -0.164,-0.61 0.226,-0.582 0.816,0.054 z m -8.539,0.461 c 0.059,0.391 -0.023,0.434 -0.848,0.434 -0.504,0 -0.918,-0.035 -0.918,-0.078 0,-0.168 1.313,-0.914 1.504,-0.852 0.11,0.031 0.227,0.258 0.262,0.496 z m 0.453,1.645 c 1.102,0.562 1.586,1.422 1.586,2.82 0,0.863 -0.102,1.258 -0.449,1.699 l -0.449,0.571 -0.102,-0.684 c -0.133,-0.91 -1.168,-1.582 -1.918,-1.238 -0.797,0.359 -1.219,1.312 -1.469,3.297 -0.304,2.414 -0.91,3.668 -2.347,4.835 -1.231,1.004 -2.118,1.258 -3.168,0.911 -0.746,-0.246 -1.313,-1.024 -1.313,-1.801 0,-1.145 1.391,-2.688 2.051,-2.277 0.129,0.078 0.156,0.039 0.07,-0.102 -0.078,-0.125 -0.015,-0.281 0.145,-0.34 0.66,-0.254 1.558,-1.883 1.84,-3.34 0.367,-1.906 0.687,-2.789 0.953,-2.625 0.125,0.074 0.152,0.035 0.07,-0.101 -0.398,-0.641 1.59,-2.008 2.942,-2.024 0.417,-0.008 1.117,0.172 1.558,0.399 z m -14.086,0.191 c 0.028,0 0.051,0.078 0.051,0.176 0,0.168 -1.063,0.504 -1.535,0.484 -0.129,-0.004 -0.192,0.106 -0.137,0.246 0.164,0.43 -0.34,0.559 -0.637,0.164 -0.437,-0.574 -0.351,-0.867 0.34,-1.156 0.438,-0.183 0.828,-0.211 1.25,-0.09 0.34,0.098 0.641,0.176 0.668,0.176 z m 7.719,0.156 c 0.644,0.672 0.711,1.946 0.125,2.258 -0.555,0.297 -1.09,0.227 -1.473,-0.195 -0.468,-0.52 -1.14,-0.219 -1.582,0.707 -0.25,0.519 -0.449,0.68 -0.855,0.68 -0.516,0 -0.524,-0.024 -0.438,-1.079 0.067,-0.828 0.239,-1.265 0.731,-1.89 0.652,-0.82 0.961,-0.961 2.246,-1.008 0.539,-0.023 0.844,0.105 1.246,0.527 z m 14.57,-0.054 c 0.274,0.371 0.27,0.379 -0.054,0.125 -0.196,-0.153 -0.352,-0.368 -0.352,-0.485 0,-0.113 0.023,-0.172 0.055,-0.125 0.031,0.047 0.191,0.262 0.351,0.485 z m -39.461,0.199 c -0.261,0.277 -0.504,0.5 -0.543,0.5 -0.039,0 0.078,-0.223 0.258,-0.5 0.184,-0.274 0.426,-0.5 0.543,-0.5 0.113,0 0,0.226 -0.258,0.5 z m 12.825,-0.098 c 1.125,0.574 1.726,1.614 2.203,3.785 0.222,1.028 0.531,2.106 0.687,2.395 0.293,0.555 1.098,1.238 2.352,2.004 0.527,0.32 0.808,0.668 0.953,1.191 0.336,1.211 0.25,1.719 -0.383,2.328 -0.535,0.512 -0.691,0.555 -1.703,0.473 -2.395,-0.199 -4.172,-2.574 -4.609,-6.16 -0.075,-0.602 -0.321,-1.531 -0.551,-2.063 l -0.414,-0.968 -0.957,0.058 c -0.528,0.031 -0.946,0.106 -0.934,0.16 0.016,0.055 -0.16,0.453 -0.391,0.887 l -0.414,0.785 -0.359,-0.551 c -0.82,-1.253 -0.141,-3.574 1.258,-4.312 0.976,-0.516 2.265,-0.52 3.262,-0.012 z m 28.265,3.254 c 0.336,0.524 0.625,1.168 0.641,1.434 0.015,0.261 0.086,0.441 0.156,0.398 0.117,-0.07 0.461,1.129 0.641,2.223 0.164,1.019 0.672,2.308 1.371,3.476 0.422,0.7 0.765,1.286 0.765,1.301 0,0.016 -1.422,0.02 -3.156,0.008 -3.625,-0.02 -4.926,-0.297 -6.293,-1.34 -1.105,-0.844 -1.305,-1.41 -0.996,-2.801 0.211,-0.945 0.34,-1.136 1.027,-1.523 1.348,-0.754 2.239,-2.266 2.508,-4.254 0.082,-0.594 0.231,-1.297 0.332,-1.562 0.184,-0.481 0.196,-0.477 1.285,0.601 0.61,0.598 1.379,1.516 1.719,2.039 z m -39.633,-1.492 c 0.164,1.383 0.938,3.187 1.723,4.023 0.492,0.524 0.762,1.071 0.973,1.989 0.515,2.238 0.004,3.254 -2.02,4.011 -1.519,0.571 -2.902,0.711 -5.219,0.536 l -1.922,-0.141 0.415,-0.586 c 0.23,-0.32 0.511,-0.523 0.632,-0.453 0.129,0.082 0.157,0.043 0.071,-0.098 -0.078,-0.129 0.093,-0.828 0.386,-1.554 0.289,-0.723 0.614,-1.872 0.723,-2.551 0.309,-1.922 1.488,-4.168 3.148,-5.985 0.637,-0.699 0.938,-0.472 1.09,0.809 z m 17.5,-0.336 c 0.438,0.363 0.871,1.289 0.871,1.859 0,0.274 -0.222,0.719 -0.492,0.989 l -0.488,0.488 -0.125,-0.574 c -0.176,-0.789 -0.488,-0.93 -0.887,-0.403 -0.347,0.461 -1.469,0.645 -1.808,0.301 -0.098,-0.101 -0.223,-0.59 -0.282,-1.082 -0.078,-0.695 -0.011,-1.008 0.282,-1.371 0.664,-0.809 2.086,-0.91 2.929,-0.207 z m -14.672,1.25 c 0.344,3.43 0.356,3.199 -0.136,2.891 -0.446,-0.282 -1.594,-2.418 -1.817,-3.379 -0.109,-0.477 -0.074,-0.512 0.457,-0.434 0.461,0.07 0.602,-0.004 0.719,-0.371 0.137,-0.434 0.16,-0.437 0.41,-0.098 0.145,0.2 0.309,0.825 0.367,1.391 z m 31.625,-1.074 c 0.239,0.633 0.512,0.746 0.887,0.375 0.391,-0.391 -0.121,1.445 -0.66,2.367 -0.445,0.762 -1.262,1.555 -1.43,1.387 -0.109,-0.106 0.293,-4.293 0.434,-4.52 0.234,-0.379 0.539,-0.226 0.769,0.391 z m -11.589,1.601 c 0.691,0 0.75,0.039 0.64,0.45 -0.066,0.25 -0.121,0.609 -0.125,0.8 -0.004,0.512 -0.34,0.43 -0.476,-0.117 -0.075,-0.293 -0.41,-0.601 -0.907,-0.824 -0.527,-0.238 -0.753,-0.453 -0.683,-0.641 0.094,-0.246 0.16,-0.242 0.453,0.024 0.187,0.168 0.684,0.308 1.098,0.308 z m -1.219,1.024 c 0.305,0.137 0.535,0.453 0.609,0.828 0.231,1.152 0.153,1.359 -0.625,1.684 l -0.746,0.312 -0.551,-0.66 c -0.304,-0.363 -0.582,-0.621 -0.621,-0.57 -0.039,0.046 -0.218,0.496 -0.406,0.992 -0.387,1.047 -0.441,2.824 -0.105,3.465 0.23,0.433 0.23,0.433 -0.207,0.046 -0.239,-0.21 -0.391,-0.511 -0.333,-0.66 0.059,-0.152 0.028,-0.226 -0.07,-0.164 -0.097,0.059 -0.234,-0.199 -0.305,-0.57 -0.07,-0.375 -0.257,-0.789 -0.421,-0.926 -0.473,-0.39 -0.364,-1.699 0.218,-2.617 0.328,-0.52 0.618,-0.777 0.797,-0.707 0.16,0.062 0.266,0.004 0.239,-0.129 -0.04,-0.207 0.523,-0.367 1.796,-0.52 0.133,-0.015 0.461,0.075 0.731,0.196 z m -4.879,1.898 c 0,1.035 -0.023,1.086 -0.398,0.883 -0.219,-0.117 -0.375,-0.32 -0.348,-0.457 0.023,-0.133 -0.106,-0.219 -0.289,-0.187 -0.184,0.031 -0.477,-0.149 -0.653,-0.395 -0.375,-0.543 -0.41,-0.988 -0.062,-0.859 0.137,0.05 0.519,0.015 0.852,-0.079 0.328,-0.093 0.667,-0.132 0.75,-0.085 0.082,0.046 0.148,0.578 0.148,1.179 z m 3.23,1.942 c -0.164,0.164 -0.222,0.14 -0.222,-0.082 0,-0.399 0.265,-0.668 0.367,-0.371 0.043,0.128 -0.023,0.332 -0.145,0.453 z m -15.195,1.625 c -0.062,0.101 0,0.113 0.133,0.031 0.144,-0.09 0.43,0.019 0.684,0.258 0.515,0.484 1.75,1.031 2.32,1.031 0.488,0 1.355,1.102 1.5,1.902 0.156,0.848 -0.207,2.012 -0.735,2.352 -0.886,0.574 -1.703,0.586 -2.781,0.039 -0.558,-0.281 -1.051,-0.473 -1.097,-0.426 -0.047,0.047 0.043,0.574 0.199,1.176 0.371,1.414 0.234,2.031 -0.602,2.769 -0.551,0.481 -0.847,0.594 -1.531,0.567 -0.465,-0.016 -1.148,-0.156 -1.516,-0.309 -0.371,-0.156 -0.718,-0.238 -0.769,-0.183 -0.051,0.05 0.097,0.527 0.336,1.062 0.457,1.024 0.429,2.258 -0.055,2.871 -0.519,0.653 -1.809,1.207 -2.344,1.008 -0.058,-0.019 -0.3,-0.074 -0.547,-0.121 -0.453,-0.086 -2.011,-0.977 -3.261,-1.867 -1.403,-0.996 -2.848,-2.551 -3.422,-3.672 -0.778,-1.527 -0.762,-2.391 0.066,-3.656 0.871,-1.325 1.684,-1.571 4.457,-1.356 1.457,0.113 2.36,0.082 3.305,-0.117 0.719,-0.148 1.437,-0.285 1.605,-0.305 0.164,-0.015 0.352,-0.101 0.418,-0.191 0.063,-0.086 0.305,-0.172 0.536,-0.191 0.23,-0.016 0.378,-0.098 0.332,-0.176 -0.051,-0.078 0.074,-0.196 0.277,-0.262 0.199,-0.062 0.586,-0.406 0.851,-0.766 0.395,-0.523 0.489,-0.886 0.489,-1.898 v -1.25 l 0.633,0.75 c 0.343,0.414 0.578,0.832 0.519,0.93 z m 27.93,1.422 c 0.437,0.484 1.84,1.179 3.062,1.519 0.524,0.145 2.211,0.254 4.016,0.266 3.363,0.019 3.809,0.14 4.516,1.218 1.476,2.254 -0.032,5.184 -4.09,7.95 -2.746,1.871 -3.485,1.976 -4.93,0.703 -0.902,-0.793 -0.977,-0.934 -0.969,-1.754 0.004,-0.488 0.153,-1.16 0.332,-1.488 0.535,-0.997 0.422,-1.122 -0.601,-0.672 -1.461,0.648 -3.008,0.062 -3.606,-1.36 -0.25,-0.601 -0.238,-0.793 0.125,-1.816 0.219,-0.633 0.403,-1.172 0.403,-1.207 0,-0.031 -0.45,0.176 -0.996,0.461 -1.426,0.746 -2.708,0.449 -3.34,-0.77 -0.403,-0.781 -0.391,-1.734 0.027,-2.547 0.254,-0.492 0.438,-0.605 0.992,-0.605 1.367,0 2.676,-0.441 3.344,-1.129 l 0.641,-0.66 0.355,0.746 c 0.195,0.41 0.52,0.926 0.719,1.145 z m 10.25,7.863 c -0.25,0.316 -0.242,0.324 0.074,0.074 0.336,-0.262 0.441,-0.426 0.273,-0.426 -0.039,0 -0.199,0.156 -0.347,0.352 z m -30.754,-7.598 c 0.297,0.309 0.496,0.625 0.437,0.699 -0.054,0.075 -0.05,0.098 0.016,0.051 0.066,-0.047 0.527,0.137 1.031,0.402 0.676,0.36 1.227,0.485 2.117,0.485 1.165,0 1.239,-0.031 2.04,-0.863 l 0.828,-0.868 0.757,0.481 c 2.207,1.398 3.864,1.355 5.676,-0.141 0.403,-0.328 0.754,-0.578 0.781,-0.547 0.165,0.161 -0.558,1.676 -0.945,1.993 -1.34,1.085 -4.769,2.707 -5.078,2.398 -0.062,-0.063 -0.113,-0.023 -0.113,0.086 0,0.113 -0.531,0.363 -1.18,0.559 -1.117,0.339 -1.23,0.339 -2.254,0.011 -1.754,-0.562 -3.777,-1.543 -3.64,-1.765 0.07,-0.114 0.027,-0.141 -0.098,-0.067 -0.125,0.078 -0.656,-0.148 -1.184,-0.496 -0.75,-0.496 -1.05,-0.863 -1.371,-1.672 l -0.41,-1.039 0.805,-0.047 c 0.445,-0.027 0.847,-0.086 0.894,-0.136 0.176,-0.176 0.36,-0.082 0.891,0.476 z m 13.687,3.184 c 0.473,0.961 1.461,1.527 2.692,1.543 0.859,0.015 0.953,0.058 0.863,0.418 -0.055,0.218 0.039,0.793 0.207,1.269 0.277,0.793 0.277,0.863 -0.008,0.754 -0.172,-0.066 -0.859,-0.121 -1.523,-0.121 -1.281,0 -1.235,0.051 -0.824,-0.949 0.078,-0.188 -0.129,-0.176 -0.852,0.039 -0.809,0.246 -1.047,0.246 -1.605,0.015 -1.086,-0.453 -1.477,-1.441 -1,-2.511 0.125,-0.281 1.254,-1.141 1.55,-1.184 0.075,-0.012 0.297,0.317 0.5,0.727 z m -14.476,0.468 c 0.754,0.895 0.726,2.02 -0.059,2.579 -0.672,0.476 -1.031,0.5 -2.074,0.129 -0.863,-0.309 -0.895,-0.215 -0.352,0.98 0.489,1.074 0.364,1.957 -0.367,2.531 -0.445,0.348 -0.691,0.387 -1.679,0.274 -0.633,-0.075 -1.157,-0.102 -1.157,-0.059 0,0.043 0.18,0.586 0.399,1.211 0.476,1.348 0.371,2.223 -0.356,3.004 -0.945,1.016 -1.57,1.066 -3.586,0.277 -0.98,-0.383 -2.023,-0.804 -2.32,-0.937 l -0.535,-0.246 0.984,-0.457 c 1.223,-0.567 1.676,-1.348 1.696,-2.938 l 0.015,-1.148 0.922,-0.004 c 1.649,0 2.984,-1.266 3.047,-2.879 0.035,-0.871 0.07,-0.938 0.484,-0.832 1.387,0.348 3.246,-0.567 3.539,-1.742 0.153,-0.614 0.243,-0.703 0.532,-0.551 0.191,0.101 0.582,0.465 0.867,0.808 z m 11.93,2.422 c 0.406,0.547 0.414,0.602 0.082,0.508 -0.207,-0.055 -0.981,-0.211 -1.727,-0.344 -1.473,-0.261 -1.582,-0.332 -1.43,-0.918 0.071,-0.265 0.481,-0.523 1.242,-0.785 l 1.141,-0.394 0.121,0.664 c 0.067,0.363 0.324,0.933 0.571,1.269 z m -8.961,-1.148 c 0.964,0.41 1.199,0.855 0.945,1.785 -0.113,0.395 -0.309,0.785 -0.438,0.867 -0.132,0.082 -0.828,0.125 -1.543,0.098 l -1.304,-0.047 0.672,0.691 c 0.414,0.43 0.609,0.79 0.515,0.942 -0.105,0.172 -0.07,0.199 0.106,0.09 0.207,-0.129 0.238,0.043 0.152,0.808 -0.141,1.262 -0.644,1.692 -1.973,1.692 -0.539,0 -0.98,0.035 -0.98,0.082 0,0.043 0.269,0.593 0.601,1.218 0.567,1.083 0.813,2.262 0.418,2.016 -0.097,-0.062 -0.136,0.063 -0.082,0.274 0.075,0.285 -0.125,0.55 -0.75,1.003 -0.464,0.336 -1.031,0.614 -1.25,0.614 -0.64,0 -2.535,-0.649 -2.421,-0.832 0.054,-0.09 -0.02,-0.117 -0.168,-0.063 -0.145,0.059 -0.625,-0.027 -1.063,-0.187 -0.437,-0.16 -0.644,-0.297 -0.465,-0.305 0.18,-0.008 0.641,-0.363 1.024,-0.785 0.781,-0.867 1.082,-2.106 0.769,-3.184 -0.187,-0.64 -0.179,-0.652 0.465,-0.652 1.027,0 2.234,-0.977 2.387,-1.934 0.066,-0.422 0.07,-0.972 0.004,-1.218 -0.098,-0.383 -0.035,-0.454 0.394,-0.454 0.621,0 1.875,-0.707 2.145,-1.21 0.105,-0.2 0.195,-0.731 0.195,-1.172 0,-0.899 -0.117,-0.891 1.645,-0.137 z m 4.765,1.523 c 1.156,0.313 2.645,0.664 3.305,0.786 0.66,0.117 1.426,0.261 1.703,0.316 0.273,0.059 1.582,0.16 2.902,0.226 2.707,0.137 3.106,0.317 3.106,1.399 0,0.543 -0.117,0.723 -0.641,0.996 -0.539,0.277 -1.004,0.309 -2.855,0.195 -1.219,-0.074 -3.157,-0.273 -4.313,-0.441 -2.347,-0.344 -6.832,-1.227 -6.98,-1.379 -0.055,-0.055 0.051,-0.262 0.234,-0.465 0.184,-0.203 0.332,-0.476 0.332,-0.613 0,-0.137 0.106,-0.184 0.235,-0.106 0.14,0.09 0.175,0.059 0.089,-0.082 -0.078,-0.125 -0.082,-0.55 -0.007,-0.945 0.105,-0.559 0.207,-0.687 0.461,-0.586 0.179,0.074 1.273,0.391 2.429,0.699 z m 12.485,1.899 c 0.398,0.164 0.972,0.301 1.277,0.301 0.531,0 0.559,0.043 0.57,0.988 0.016,0.926 -0.011,0.976 -0.379,0.777 -0.215,-0.113 -0.808,-0.168 -1.316,-0.121 l -0.922,0.09 v -1.168 c 0,-0.645 0.012,-1.168 0.027,-1.168 0.012,0 0.348,0.137 0.743,0.301 z m -13.387,1.699 c 4.262,0.859 6.234,1.066 10.699,1.105 3.981,0.04 4.102,0.051 4.457,0.493 0.422,0.519 0.481,1.578 0.117,2.07 -0.402,0.539 -2.14,0.742 -6.34,0.738 -4.363,-0.004 -6.773,-0.265 -11.39,-1.222 -2.617,-0.547 -2.992,-0.668 -2.602,-0.86 0.617,-0.304 1.153,-1.445 1.153,-2.465 0,-0.843 0.004,-0.847 0.55,-0.636 0.305,0.113 1.813,0.465 3.356,0.777 z m 17.652,2.809 c 0.496,0 0.285,0.32 -0.433,0.664 -0.391,0.183 -0.774,0.336 -0.852,0.336 -0.082,0 -0.113,-0.407 -0.074,-0.899 l 0.07,-0.902 0.508,0.398 c 0.281,0.223 0.629,0.403 0.781,0.403 z m -20.242,1.187 c 1.547,0.328 3.871,0.738 5.164,0.906 3.145,0.411 9.895,0.414 12.449,0.004 1.707,-0.277 1.961,-0.277 2.496,0 0.731,0.379 1.008,0.867 1.008,1.778 0,0.808 -0.34,1.214 -1.371,1.648 -3.93,1.648 -13.887,1.539 -21.863,-0.246 -1.266,-0.281 -2.363,-0.547 -2.434,-0.594 -0.07,-0.043 0.168,-0.379 0.535,-0.742 0.77,-0.773 1.051,-1.859 0.739,-2.871 -0.184,-0.606 -0.168,-0.676 0.125,-0.582 0.183,0.058 1.601,0.371 3.152,0.699 z m -13.617,1.387 c 2.195,0.953 6.726,2.43 9.347,3.051 1.075,0.254 1.954,0.531 1.954,0.621 0,0.09 -1.75,0.16 -3.883,0.16 -4.227,0 -6.102,-0.246 -8.606,-1.129 -1.582,-0.559 -2.132,-1.039 -2.132,-1.871 0,-0.664 0.691,-1.606 1.179,-1.606 0.196,0 1.156,0.348 2.141,0.774 z" /><path
         id="path16"
         style="fill:#054779;fill-opacity:1;fill-rule:nonzero;stroke:none"
         d="m 176.234,62.959 c -1.129,0.218 -1.261,0.714 -0.613,2.293 0.363,0.894 0.426,0.867 0.91,-0.36 0.407,-1.027 0.832,-1.312 1.965,-1.312 1.762,0 3.473,1.578 3.266,3.015 -0.086,0.614 -0.785,1.364 -1.688,1.817 -1.574,0.785 -1.605,1.383 -0.082,1.383 0.789,0 2.34,1.652 2.34,2.496 0,0.746 -1.941,2.281 -2.879,2.281 -0.566,0 -1.191,-0.492 -1.512,-1.195 -0.726,-1.598 -1.347,-1.512 -1.347,0.187 0,1.188 0.222,1.422 1.609,1.684 1.871,0.351 5.016,-0.575 5.703,-1.676 0.731,-1.168 -0.008,-3.199 -1.429,-3.945 -1.254,-0.657 -1.258,-0.676 -0.235,-1 2.074,-0.661 1.961,-4.477 -0.16,-5.446 -1.199,-0.543 -3.68,-0.636 -5.848,-0.222 z m 18.844,-0.016 c -0.176,0.176 -0.32,0.836 -0.32,1.473 0,1.132 -0.051,1.144 -3.106,0.82 -1.711,-0.184 -3.093,-0.149 -3.078,0.082 0.055,0.769 6.016,9.973 6.461,9.973 0.242,0 0.602,-1.614 0.797,-3.586 0.43,-4.34 0.637,-4.957 1.559,-4.606 0.433,0.168 0.714,-0.004 0.714,-0.429 0,-0.383 -0.324,-0.7 -0.718,-0.7 -0.5,0 -0.715,-0.504 -0.715,-1.675 0,-1.575 -0.742,-2.204 -1.594,-1.352 z m -1.933,3.777 c 1.339,0.27 1.371,0.344 1.21,2.867 -0.089,1.43 -0.304,2.594 -0.476,2.586 -0.176,-0.003 -1.008,-1.293 -1.856,-2.867 -1.613,-2.988 -1.554,-3.117 1.122,-2.586 z m 10.691,-0.972 c -0.574,1.5 -0.156,2.304 0.543,1.054 0.625,-1.117 2.586,-1.054 3.762,0.121 1.839,1.84 0.871,4.305 -1.688,4.305 -1.801,0 -2.242,0.692 -0.699,1.094 0.676,0.176 0.953,0.648 0.945,1.609 -0.008,2.031 -0.601,2.645 -2.39,2.469 -1.325,-0.129 -1.68,-0.43 -2.168,-1.828 -0.379,-1.086 -0.668,-1.422 -0.828,-0.953 -0.84,2.429 -0.844,2.426 1.218,3.359 2.473,1.121 4.34,1.188 5.336,0.192 0.988,-0.989 0.961,-3.262 -0.043,-4.09 -0.711,-0.59 -0.625,-0.684 0.828,-0.899 1.231,-0.179 1.731,-0.551 2.082,-1.551 0.95,-2.707 -0.921,-4.863 -5.093,-5.878 -1.121,-0.27 -1.379,-0.129 -1.805,0.996 z m -36.441,2.504 c -2.422,0.8 -2.985,1.543 -1.176,1.543 0.883,0 1.199,0.39 1.64,2.031 0.301,1.117 0.68,2.383 0.848,2.812 0.231,0.602 -0.109,0.879 -1.5,1.207 l -1.801,0.426 2.965,0.492 c 3.547,0.586 3.578,0.508 1.738,-4.379 l -1.226,-3.257 1.109,-0.852 c 1.371,-1.055 0.52,-1.063 -2.597,-0.023 z m -21.774,12.632 c -0.812,0.809 -0.711,3.043 0.176,3.93 0.891,0.891 3.121,0.992 3.933,0.18 0.317,-0.317 0.575,-1.242 0.575,-2.055 0,-1.879 -0.754,-2.629 -2.629,-2.629 -0.817,0 -1.738,0.258 -2.055,0.574 z m 81.313,1.235 c -0.918,0.582 -1.496,2.64 -1.067,3.793 0.938,2.504 5.219,1.488 5.219,-1.239 0,-2.187 -2.406,-3.668 -4.152,-2.554 z m -96.762,10.738 c -0.313,0.59 -0.883,1.559 -1.266,2.148 -0.672,1.04 -0.648,1.067 0.672,0.844 2.02,-0.336 10.039,4.856 9.82,6.363 -0.246,1.727 0.551,1.18 1.973,-1.351 1.242,-2.215 1.238,-3.106 -0.012,-1.856 -0.394,0.395 -1.808,-0.261 -5.359,-2.468 -3.875,-2.41 -4.773,-3.18 -4.551,-3.879 0.395,-1.246 -0.597,-1.09 -1.277,0.199 z m 113.223,2.781 c -1.34,0.789 -1.004,1.555 0.546,1.242 1.196,-0.238 1.465,-0.085 1.957,1.098 1.403,3.391 -0.406,4.133 -4.734,1.949 -3.215,-1.621 -4.816,-1.586 -6.027,0.141 -1.106,1.578 -0.867,3.863 0.586,5.656 0.711,0.875 1.355,1.68 1.433,1.789 0.074,0.11 0.68,-0.047 1.336,-0.347 1.68,-0.766 1.551,-1.711 -0.187,-1.364 -1.192,0.239 -1.465,0.086 -1.953,-1.097 -0.7,-1.688 -0.508,-2.856 0.574,-3.539 0.644,-0.407 1.492,-0.168 3.969,1.101 3.093,1.586 3.183,1.602 4.785,0.836 2.304,-1.098 2.636,-2.797 1.09,-5.574 -1.278,-2.285 -2.012,-2.695 -3.375,-1.891 z m -117.879,5.375 c -0.793,1.961 -0.782,2 2.054,6.496 3.817,6.047 3.825,5.946 -0.293,4.36 -2.304,-0.895 -3.695,-1.731 -4.074,-2.457 l -0.57,-1.098 -0.442,1.172 c -0.242,0.648 -0.605,1.715 -0.804,2.371 -0.356,1.156 -0.336,1.168 0.566,0.359 0.895,-0.796 1.137,-0.754 5.68,1.012 6.191,2.406 6.898,2.613 6.898,2.039 0,-0.262 -1.539,-2.859 -3.418,-5.777 -1.879,-2.914 -3.308,-5.406 -3.183,-5.531 0.129,-0.129 2.086,0.461 4.351,1.304 3.535,1.324 4.141,1.715 4.289,2.754 0.164,1.149 0.211,1.121 0.977,-0.566 1.055,-2.324 1.047,-2.918 -0.027,-2.262 -0.653,0.398 -1.954,0.094 -5.852,-1.379 -4.066,-1.535 -5.07,-2.105 -5.309,-3.015 -0.296,-1.125 -0.3,-1.125 -0.843,0.218 z m 124.691,5.985 c 0,0.57 -0.082,1.035 -0.184,1.035 -0.101,0 -2.402,0.781 -5.109,1.73 -3.918,1.379 -5.101,1.621 -5.785,1.196 -1.301,-0.809 -1.324,-0.723 -0.5,1.855 0.762,2.383 1.539,3.156 1.539,1.535 0,-1.113 10.328,-4.785 11.148,-3.965 1.036,1.036 1.168,0.469 0.379,-1.613 -0.972,-2.559 -1.488,-3.176 -1.488,-1.773 z m 1.313,7.589 c -1.735,0.266 -1.672,0.938 0.121,1.333 1.191,0.261 1.433,0.55 1.433,1.703 0,1.562 0.239,1.464 -6.453,2.589 -4.293,0.719 -4.305,0.719 -5.148,-0.351 -0.828,-1.051 -0.84,-1.024 -0.535,1.555 0.335,2.851 1.101,4.894 1.128,3.015 0.008,-0.574 0.231,-1.179 0.493,-1.344 0.714,-0.437 10.695,-2.085 11.113,-1.832 0.754,0.457 0.34,2.813 -0.598,3.395 -1.465,0.918 -1.152,1.559 0.598,1.227 0.855,-0.161 1.59,-0.317 1.633,-0.348 0.043,-0.027 -0.332,-2.524 -0.828,-5.547 -0.497,-3.023 -0.907,-5.551 -0.914,-5.617 -0.004,-0.063 -0.172,-0.086 -0.368,-0.047 -0.199,0.039 -0.953,0.16 -1.675,0.269 z m -131.809,12.086 c -0.656,0.661 -0.953,1.586 -0.945,2.989 0.007,2.48 0.332,3.015 2.023,3.328 1.641,0.305 1.715,-0.418 0.117,-1.145 -2.09,-0.953 -1.429,-4.691 0.832,-4.691 0.563,0 1.578,1.117 2.828,3.109 1.25,1.996 2.36,3.215 3.09,3.399 3.223,0.808 5.352,-1.758 4.758,-5.739 -0.32,-2.128 -0.387,-2.203 -1.976,-2.203 -2.016,0 -2.059,0.239 -0.208,1.196 1.625,0.839 1.872,2.265 0.688,3.953 -1.25,1.789 -2.445,1.328 -4.359,-1.684 -0.961,-1.512 -1.977,-2.906 -2.266,-3.101 -1.031,-0.7 -3.625,-0.364 -4.582,0.589 z m 122.301,3.497 c -0.184,2.906 -0.098,3.128 0.734,1.992 0.473,-0.645 0.754,-0.637 2.582,0.082 2.035,0.801 2.055,0.828 1.914,2.945 -0.14,2.086 -0.199,2.156 -2.293,2.781 -1.183,0.352 -2.207,0.645 -2.273,0.649 -0.063,0.004 -0.117,-0.317 -0.117,-0.711 0,-0.395 -0.215,-0.719 -0.481,-0.719 -0.262,0 -0.476,1.012 -0.476,2.242 0,2.188 0.023,2.219 0.867,1.317 0.472,-0.512 3.597,-1.895 6.937,-3.078 4.078,-1.446 6.032,-2.364 5.946,-2.801 -0.071,-0.356 -2.707,-1.723 -5.864,-3.035 -3.152,-1.317 -6.09,-2.84 -6.523,-3.387 -0.758,-0.961 -0.793,-0.899 -0.953,1.723 z m 10.285,4.988 c 0.426,0.254 -2.785,1.535 -3.883,1.547 -0.598,0.007 -0.859,-2.442 -0.32,-2.977 0.242,-0.242 2.98,0.688 4.203,1.43 z m -133.254,4.781 c 0.18,0.984 0.5,2.223 0.715,2.75 0.375,0.938 0.39,0.938 0.687,-0.066 0.258,-0.86 0.985,-1.149 4.516,-1.793 5.293,-0.969 5.906,-0.965 6.805,0.066 0.925,1.066 1.367,3.461 0.82,4.481 -0.555,1.039 -1.352,1.332 -6.281,2.304 -3.75,0.739 -4.231,0.746 -4.899,0.082 -0.664,-0.668 -0.738,-0.664 -0.738,0.02 0,0.418 0.137,1.433 0.301,2.254 0.32,1.605 1.133,2.054 1.133,0.633 0,-0.704 0.664,-0.977 3.519,-1.458 6.016,-1.007 6.813,-1.343 7.703,-3.222 0.692,-1.453 0.727,-2.043 0.239,-4.063 -0.942,-3.925 -2.192,-4.34 -9.02,-2.984 -3.742,0.742 -4.051,0.742 -4.594,0 -0.937,-1.281 -1.258,-0.926 -0.906,0.996 z m 120.988,6.301 c -1.086,3.437 -1.066,4.445 0.055,2.988 l 0.848,-1.105 5.171,1.441 c 2.84,0.793 5.262,1.531 5.375,1.648 0.114,0.114 0.063,0.778 -0.113,1.481 -0.23,0.91 -0.715,1.355 -1.695,1.551 -0.758,0.152 -1.379,0.437 -1.379,0.633 0,0.335 2.883,1.105 3.141,0.839 0.066,-0.066 0.664,-2.168 1.328,-4.664 0.664,-2.496 1.34,-4.886 1.504,-5.312 0.222,-0.582 -0.082,-0.848 -1.243,-1.078 -1.945,-0.391 -2.343,-0.012 -0.992,0.933 0.809,0.571 0.977,1.024 0.739,2.02 -0.168,0.707 -0.356,1.347 -0.418,1.422 -0.086,0.109 -5.442,-1.25 -10.364,-2.633 -0.445,-0.125 -0.883,-0.797 -0.976,-1.496 -0.137,-1.047 -0.305,-0.824 -0.981,1.332 z m -104.984,5.121 c -0.031,0.828 -0.988,1.437 -5.067,3.226 -5.496,2.407 -5.785,2.481 -6.097,1.606 -0.121,-0.332 -0.387,-0.441 -0.594,-0.246 -0.211,0.195 0.41,1.953 1.375,3.906 1.996,4.043 3.324,4.797 6,3.41 2.051,-1.058 2.371,-2.679 1.242,-6.269 -0.261,-0.828 0.02,-1.117 1.723,-1.789 1.887,-0.739 2.094,-0.743 2.898,-0.012 1.137,1.027 1.063,0.453 -0.312,-2.469 -0.774,-1.64 -1.141,-2.066 -1.168,-1.363 z m -3.652,6.672 c 0.668,2.66 -2.481,4.828 -4.801,3.308 -1.731,-1.136 -1.434,-2.308 0.886,-3.472 2.727,-1.371 3.536,-1.336 3.915,0.164 z m 105.113,-2.223 c -1.067,2.434 -1.012,3.328 0.137,2.18 0.57,-0.57 1.375,-0.34 5.546,1.605 3.817,1.778 4.946,2.528 5.184,3.438 0.281,1.066 0.391,0.969 1.34,-1.172 1.07,-2.418 1.039,-3.219 -0.094,-2.277 -0.508,0.421 -1.758,0.027 -5.508,-1.723 -4.043,-1.887 -4.855,-2.449 -4.855,-3.344 -0.004,-1.707 -0.637,-1.238 -1.75,1.293 z m -96.719,6.371 c 0,1.469 -8.512,7.707 -9.453,6.926 -2.098,-1.742 0.09,2.457 2.734,5.25 2.203,2.324 6.2,0.273 5.575,-2.863 l -0.266,-1.321 h 3.363 c 1.852,0 3.785,0.223 4.293,0.493 1.125,0.605 1.16,0.316 0.153,-1.227 -0.719,-1.098 -1.047,-1.18 -4.782,-1.18 -2.203,0 -4.008,-0.187 -4.008,-0.422 0,-0.23 0.747,-0.988 1.657,-1.683 1.265,-0.965 1.968,-1.188 2.953,-0.942 l 1.289,0.325 -1.598,-2.223 c -0.875,-1.223 -1.664,-2.223 -1.754,-2.223 -0.086,0 -0.156,0.489 -0.156,1.09 z m -2.391,8.371 c 0,2.524 -2.582,3.805 -4.382,2.176 -1.219,-1.101 -1.137,-1.324 1.117,-2.984 2.222,-1.633 3.265,-1.371 3.265,0.808 z m 96.079,-9.062 c 0,0.254 0.859,3.219 1.91,6.59 1.054,3.371 1.914,6.297 1.914,6.496 0,0.203 -1.699,-0.867 -3.778,-2.375 -3.168,-2.301 -3.738,-2.918 -3.535,-3.821 0.352,-1.539 -0.043,-1.343 -1.816,0.895 l -1.559,1.969 1.399,-0.301 c 1.187,-0.254 2.023,0.148 5.465,2.613 2.953,2.117 4.128,3.258 4.308,4.184 l 0.246,1.277 0.828,-1.183 c 1.09,-1.555 1.075,-1.743 -0.632,-7.282 -0.805,-2.605 -1.399,-4.922 -1.317,-5.14 0.082,-0.219 1.496,0.566 3.137,1.746 2.367,1.699 2.992,2.414 3,3.418 l 0.012,1.269 0.957,-1.195 c 0.527,-0.656 1.179,-1.578 1.449,-2.047 0.426,-0.742 0.336,-0.812 -0.684,-0.558 -0.918,0.23 -1.926,-0.258 -4.683,-2.282 -5.649,-4.136 -6.621,-4.765 -6.621,-4.273 z m -85.821,11.269 c 0.012,0.762 -1.117,2.45 -3.328,4.973 -2.844,3.246 -3.523,3.781 -4.539,3.578 -1.133,-0.226 -1.109,-0.156 0.477,1.387 0.922,0.894 2.586,2.445 3.703,3.449 l 2.031,1.82 0.914,-1.125 c 0.93,-1.152 0.84,-2.359 -0.105,-1.414 -0.797,0.797 -1.418,0.637 -3.172,-0.828 l -1.614,-1.347 1.825,-2.016 1.824,-2.02 1.305,1.25 c 0.843,0.809 1.222,1.579 1.066,2.172 -0.359,1.383 0.422,1.051 2.004,-0.847 l 1.414,-1.7 -1.438,0.317 c -1.156,0.254 -1.656,0.078 -2.578,-0.906 l -1.144,-1.219 1.84,-1.883 1.839,-1.883 1.583,1.293 c 1.351,1.102 1.546,1.52 1.335,2.848 -0.3,1.898 0.282,2.004 1.317,0.238 0.574,-0.976 0.633,-1.437 0.223,-1.793 -0.301,-0.262 -1.829,-1.605 -3.391,-2.988 -1.567,-1.379 -2.973,-2.508 -3.129,-2.508 -0.152,0 -0.273,0.52 -0.262,1.152 z m 74.742,2.145 c -2.929,1.859 -3.742,3.137 -3.742,5.902 0,2.02 0.235,2.547 1.965,4.422 3.231,3.504 6.934,3.535 10.742,0.086 l 2.242,-2.031 -1.296,-1.418 -1.293,-1.414 0.242,1.777 c 0.207,1.539 0.047,1.938 -1.195,2.984 -1.024,0.864 -2,1.211 -3.379,1.211 -1.649,0 -2.246,-0.308 -4.024,-2.086 -1.789,-1.785 -2.09,-2.371 -2.09,-4.046 0,-1.516 0.34,-2.348 1.5,-3.668 l 1.504,-1.711 1.141,1.074 c 0.906,0.851 1.082,1.371 0.836,2.488 l -0.309,1.414 2.258,-1.851 c 2,-1.641 2.285,-2.571 0.617,-2.016 -0.32,0.109 -1.094,-0.41 -1.719,-1.152 -0.621,-0.742 -1.289,-1.352 -1.476,-1.352 -0.188,0 -1.324,0.625 -2.524,1.387 z m -65.878,4.738 c 0,0.207 0.226,0.606 0.507,0.887 0.36,0.355 -0.238,2 -2.023,5.59 -2.191,4.414 -2.688,5.09 -3.734,5.117 -1.051,0.023 -0.95,0.156 0.808,1.039 l 2.012,1.012 3.801,-3.43 c 2.089,-1.887 3.937,-3.434 4.105,-3.434 0.277,0 0.152,2.133 -0.476,8.157 -0.223,2.109 -0.176,2.207 1.464,2.988 2.129,1.016 2.274,1.008 1.602,-0.066 -0.449,-0.719 -0.141,-1.739 1.727,-5.711 1.953,-4.153 2.453,-4.86 3.531,-4.993 1.136,-0.14 1.019,-0.273 -1.254,-1.464 -2.309,-1.211 -3.211,-1.231 -2.031,-0.055 0.324,0.324 -0.223,1.891 -1.653,4.758 l -2.133,4.273 0.239,-4.539 c 0.133,-2.5 0.336,-5.133 0.449,-5.855 0.109,-0.723 0.047,-1.313 -0.145,-1.313 -0.187,0.004 -1.863,1.348 -3.718,2.988 -4.184,3.704 -5.243,4.551 -4.93,3.942 0.137,-0.266 1.039,-2.133 2.004,-4.153 1.465,-3.062 1.965,-3.699 3.016,-3.824 1.164,-0.14 1.089,-0.234 -0.954,-1.219 -1.218,-0.589 -2.214,-0.902 -2.214,-0.695 z m 55.265,2.488 c -1.98,1.141 -2.172,1.368 -1.262,1.504 1.547,0.231 6.383,9.246 5.672,10.575 -0.429,0.8 -0.359,0.871 0.598,0.566 0.594,-0.188 1.715,-0.73 2.488,-1.199 1.395,-0.848 1.395,-0.856 0.274,-1.016 -1.582,-0.223 -6.535,-9.64 -5.641,-10.719 0.996,-1.199 0.289,-1.105 -2.129,0.289 z m -13.203,4.879 c -3.246,0.942 -3.469,1.082 -2.359,1.485 1.07,0.386 1.398,1.086 2.578,5.472 1.109,4.125 1.25,5.2 0.773,5.961 -0.32,0.512 -0.511,0.996 -0.426,1.078 0.082,0.082 2.196,-0.531 4.692,-1.359 4.101,-1.363 4.621,-1.672 5.379,-3.184 1.07,-2.144 1.043,-4.039 -0.09,-6.535 -1.711,-3.765 -4.731,-4.601 -10.547,-2.918 z m 6.043,0.676 c 4.285,2.031 4.52,9.332 0.348,10.711 -2.246,0.742 -2.821,0.406 -3.446,-2.012 -0.293,-1.14 -0.949,-3.523 -1.464,-5.293 l -0.934,-3.222 1.519,-0.442 c 2.129,-0.613 2.145,-0.613 3.977,0.258 z m -33.289,-0.871 c 0,0.086 0.289,0.445 0.644,0.801 0.356,0.355 1.692,3.547 2.973,7.09 l 2.324,6.441 3.828,0.488 c 2.106,0.27 3.997,0.387 4.2,0.258 0.203,-0.125 0.363,-0.914 0.355,-1.754 l -0.019,-1.523 -1.059,1.246 c -0.891,1.055 -1.348,1.215 -2.898,1.019 l -1.84,-0.23 0.332,-2.691 c 0.183,-1.481 0.406,-2.766 0.492,-2.856 0.484,-0.504 3.242,0.625 3.449,1.41 0.414,1.586 0.981,0.977 1.156,-1.246 0.168,-2.094 -0.304,-2.879 -0.859,-1.433 -0.301,0.785 -1.941,0.945 -2.973,0.289 -0.964,-0.61 -0.257,-5.485 0.739,-5.102 0.39,0.149 1.312,0.27 2.05,0.27 1.032,0 1.411,0.277 1.641,1.195 0.418,1.66 1.238,1.5 1.238,-0.238 0,-0.789 -0.054,-1.45 -0.117,-1.465 -1.054,-0.278 -8.781,-1.223 -8.929,-1.094 -0.114,0.098 0.16,0.445 0.605,0.773 1.102,0.805 0.602,5.149 -0.586,5.098 -1.769,-0.078 -2.621,-0.836 -3.23,-2.867 -0.801,-2.684 -0.797,-2.836 0.07,-2.836 0.394,0 0.715,-0.191 0.715,-0.43 0,-0.234 -0.965,-0.504 -2.149,-0.597 -1.183,-0.098 -2.152,-0.102 -2.152,-0.016 z m 6.73,7.738 c 0.524,0 0.528,3.188 0.008,4.512 -0.293,0.75 -0.469,0.504 -0.914,-1.25 -0.301,-1.203 -0.699,-2.57 -0.879,-3.047 -0.261,-0.68 -0.156,-0.793 0.508,-0.539 0.461,0.176 1.035,0.324 1.277,0.324 z" /><text
         id="text20"
         style="font-variant:normal;font-weight:normal;font-size:36.354599px;font-family:Sylfaen;-inkscape-font-specification:Sylfaen;writing-mode:lr-tb;fill:#054779;fill-opacity:1;fill-rule:nonzero;stroke:none"
         transform="matrix(1,0,0,-1,34.716458,4.824235)"><tspan
           id="tspan18"
           y="0"
           x="0">N</tspan></text>
<text
         id="text24"
         style="font-variant:normal;font-weight:normal;font-size:48.13963699px;font-family:Sylfaen;-inkscape-font-specification:Sylfaen;writing-mode:lr-tb;fill:#054779;fill-opacity:1;fill-rule:nonzero;stroke:none"
         transform="matrix(1,0,0,-1,2.512713,4.824235)"><tspan
           id="tspan22"
           y="0"
           x="0 279.93201">UP</tspan></text>
<path
         id="path26"
         style="fill:#054779;fill-opacity:1;fill-rule:nonzero;stroke:none"
         d="m 213.641,31.72 -7.778,6.219 5.242,0.102 5.278,-6.321 z" /><text
         id="text30"
         style="font-variant:normal;font-weight:normal;font-size:36.354599px;font-family:Sylfaen;-inkscape-font-specification:Sylfaen;writing-mode:lr-tb;fill:#054779;fill-opacity:1;fill-rule:nonzero;stroke:none"
         transform="matrix(1,0,0,-1,63.009924,4.824235)"><tspan
           id="tspan28"
           y="0"
           x="0 12.687756 37.881493 60.312283 85.287895 103.90144 117.64349 138.11113 172.68436 198.64154 246.81139 262.04395 279.8577">IVERSITADIISA</tspan></text>
</g></g></svg>